# https://github.com/mikedh/trimesh
v 0.00100000 -0.18944654 -0.00068659
v -0.29156002 -0.19964921 -0.00068662
v -0.29157656 -0.19971198 -0.00200000
v -0.29350001 -0.19900000 -0.00600000
v 0.00050000 -0.18900000 -0.00600000
v -0.29312143 -0.19949763 -0.00068662
v -0.29491681 -0.19876635 -0.00068663
v -0.21050455 -0.18250000 -0.05649836
v -0.00300000 -0.15652628 -0.08450000
v 0.00100000 -0.18949276 -0.00200000
v -0.01500000 -0.14250000 -0.10000000
v -0.30632210 -0.15456890 -0.08697448
v 0.00100000 0.18949276 -0.00200000
v -0.00100000 -0.14700000 -0.08800000
v -0.29350001 0.19900000 -0.00600000
v -0.29157656 0.19971198 -0.00200000
v 0.00050000 0.18900000 -0.00600000
v -0.29685605 -0.19692047 -0.00200000
v -0.30679372 -0.15442039 -0.08582556
v -0.28500000 -0.14250000 -0.10000000
v -0.00103288 -0.15088969 -0.08829229
v -0.30174303 -0.18854156 -0.00200000
v -0.30171680 -0.18849328 -0.00068662
v -0.35261115 -0.09257239 -0.00068662
v -0.35184139 -0.09270544 -0.04033506
v -0.35400990 -0.06496704 -0.00068663
v -0.28819999 0.17289792 -0.07387640
v -0.00300000 0.15652628 -0.08450000
v -0.01500000 0.14250000 -0.10000000
v -0.28820980 0.17286284 -0.07396484
v -0.08875000 0.16590001 -0.07240000
v -0.29684103 -0.19685771 -0.00068662
v -0.26180118 -0.18337879 -0.04989859
v -0.27018756 -0.18350001 -0.04876453
v -0.29149520 -0.13875000 -0.10000000
v -0.30803657 -0.14930174 -0.08954974
v -0.32333514 -0.10756152 -0.08941422
v -0.30729935 -0.15215869 -0.08843515
v -0.28874999 -0.14149518 -0.10000000
v -0.00117506 -0.15408133 -0.08682019
v -0.01125000 -0.14149518 -0.10000000
v -0.00850481 -0.13875000 -0.10000000
v -0.00205217 -0.15631942 -0.08438057
v -0.00750000 -0.13500001 -0.10000000
v -0.00134313 -0.14700000 -0.08912016
v -0.32333514 -0.10342664 -0.09000000
v -0.29249999 -0.13500001 -0.10000000
v -0.33576411 -0.08581996 -0.08163697
v -0.33003971 -0.09658000 -0.08542677
v -0.35170332 -0.07000035 -0.06863825
v -0.35480613 -0.01181874 -0.00068663
v -0.35389358 -0.00000000 -0.03697702
v -0.35493964 0.00000001 -0.00068663
v -0.30711290 0.15256059 -0.08837561
v -0.28500000 0.14250000 -0.10000000
v -0.35465911 0.02194027 -0.00068663
v -0.30810967 0.14912711 -0.08954319
v -0.35154775 0.07746194 -0.06621533
v -0.35146675 0.08341377 -0.06237902
v -0.00110871 0.15367588 -0.08703637
v -0.00850481 0.13875000 -0.10000000
v -0.01125000 0.14149518 -0.10000000
v -0.30504328 -0.15710932 -0.08309788
v -0.35154265 -0.07736729 -0.06626888
v -0.32411033 0.10546029 -0.08940291
v -0.32333514 0.10342664 -0.09000000
v -0.33005053 0.00000000 -0.08566521
v -0.29149520 0.13875000 -0.10000000
v -0.29249999 0.13500001 -0.10000000
v -0.35147414 0.08794751 -0.05727456
v -0.35156456 0.09103372 -0.05102202
v -0.35193262 0.06122639 -0.06934872
v -0.35169443 0.07017392 -0.06860772
v -0.35172844 0.09252471 -0.04414890
v -0.35184139 0.09270544 -0.04033506
v -0.29685605 0.19692047 -0.00200000
v -0.30679372 0.15442039 -0.08582556
v -0.29589409 0.19808708 -0.00200000
v -0.29319987 0.19972277 -0.00068660
v -0.35261118 0.09257238 -0.00068662
v -0.30171680 0.18849328 -0.00068662
v -0.30174303 0.18854156 -0.00200000
v -0.00134313 0.14700000 -0.08912016
v -0.00750000 0.13500001 -0.10000000
v -0.00163291 0.15623438 -0.08400974
v -0.35147327 -0.08787864 -0.05737652
v -0.32987773 -0.10097484 -0.08414174
v -0.32987791 0.10096003 -0.08414964
v -0.29024389 0.17287318 -0.07347557
v -0.29163361 0.17286257 -0.07198240
v -0.28874999 0.14149518 -0.10000000
v -0.35404694 0.06422700 -0.00068663
v -0.30560780 0.15687551 -0.08291592
v 0.00100000 0.18944654 -0.00068658
v -0.35156241 -0.09099614 -0.05113092
v -0.33576411 0.08581996 -0.08163697
v -0.35280216 0.00558473 -0.06865846
v -0.35280952 0.00000000 -0.06865267
v -0.35208502 -0.05565340 -0.06922773
v -0.34937817 0.05500000 -0.07139663
v -0.35172579 -0.09251498 -0.04424440
v -0.35146728 -0.08333147 -0.06244924
v -0.33854932 0.08184050 -0.07962193
v -0.34486637 0.07238043 -0.07490707
v -0.00100000 0.14700000 -0.08800000
v -0.00101501 0.14700000 -0.08824459
v -0.34251896 -0.06122477 -0.07667688
v -0.34670639 -0.06958529 -0.07349117
v -0.35576600 -0.09202255 0.28505114
v -0.35795265 -0.00633784 0.28524390
v -0.35576600 0.09202255 0.28505114
v -0.29859269 -0.11587991 0.29571301
v -0.31167409 -0.11715481 0.30036229
v -0.32713354 -0.11045708 0.28524393
v -0.17150000 -0.10415839 0.28524390
v -0.32741842 -0.11033773 0.28524262
v -0.35778704 -0.02860147 0.28524390
v -0.36000001 -0.05064570 0.31072390
v -0.32348102 -0.11924328 0.30789909
v 0.08597509 0.06097228 0.36331439
v 0.03396497 0.13019499 0.40303457
v 0.08811424 0.04223209 0.37325099
v -0.28247565 0.05566226 0.46342620
v 0.02108296 0.07188925 0.46776369
v -0.28237563 0.06456453 0.46231648
v -0.32350001 -0.12212006 0.34813803
v -0.32350001 -0.12066903 0.32300779
v 0.03396497 -0.13019499 0.40303457
v -0.32350370 -0.12255977 0.36093754
v -0.32349378 -0.12244107 0.35622248
v -0.35767293 0.03648539 0.28524390
v -0.36000001 0.06297855 0.31060001
v -0.36072758 0.00000000 0.39854530
v 0.08593895 -0.02683473 0.38822708
v 0.08113041 -0.01829216 0.40277418
v 0.05286850 -0.02112816 0.44966081
v 0.04526802 -0.02724637 0.45837152
v -0.12437831 0.01865673 0.28524390
v -0.12579745 -0.03174989 0.28524390
v 0.01770159 -0.08523010 0.46390930
v 0.01646089 -0.09371424 0.45988244
v 0.01945765 -0.07750361 0.46649212
v 0.02507337 -0.06097206 0.46879941
v 0.02507343 0.06097186 0.46879944
v 0.02806293 0.05432257 0.46846175
v 0.03485488 0.04203998 0.46563879
v 0.02806293 -0.05432257 0.46846175
v 0.03475698 -0.04221640 0.46567994
v 0.02076656 -0.12248770 0.43147928
v -0.28055781 -0.10962704 0.43956622
v -0.28517807 -0.11611421 0.42678142
v 0.02866250 -0.12928259 0.41285682
v -0.30262464 -0.11761919 0.41963002
v -0.30977827 -0.11852014 0.41378832
v 0.02430009 -0.12670283 0.42229065
v 0.01816733 -0.11676300 0.44014853
v 0.01846197 0.11762212 0.43901283
v 0.01673391 0.11072867 0.44702393
v 0.03627787 -0.12996058 0.39917311
v 0.04250931 -0.12810315 0.38973200
v 0.02774489 -0.12892452 0.39198712
v -0.29890290 -0.11768153 0.30362195
v 0.03178303 -0.12712717 0.38304389
v -0.16615704 -0.10366968 0.28524348
v -0.33946118 -0.11445959 0.35410145
v -0.33957234 -0.11409677 0.37765557
v -0.35716483 0.05924794 0.28524390
v -0.35704878 -0.06139980 0.28524390
v -0.36000001 -0.05984916 0.35366037
v -0.35931456 -0.06453241 0.39835051
v -0.36061397 -0.01857746 0.39854589
v 0.06503467 -0.01444009 0.43345690
v 0.05905559 -0.01696481 0.44197512
v 0.08597509 -0.06097228 0.36331439
v 0.08811424 -0.04223205 0.37325102
v 0.08801890 -0.03862941 0.37603864
v 0.08755298 -0.03385105 0.38032365
v 0.08599312 0.02699846 0.38801405
v 0.08801890 0.03862941 0.37603864
v 0.06484415 0.01449587 0.43374631
v 0.07044733 0.01362835 0.42467278
v -0.32350001 0.12212006 0.34813803
v -0.32347411 0.12255947 0.35892108
v 0.03627556 0.12996092 0.39917687
v -0.32350001 0.12035161 0.31732646
v 0.04136718 0.12857805 0.39136449
v 0.02774489 0.12892452 0.39198712
v 0.05266458 0.02129084 0.44989559
v 0.04525638 0.02725130 0.45838809
v 0.01945759 0.07750388 0.46649203
v -0.10022199 0.01760562 0.47085080
v -0.33244970 0.03256280 0.44393957
v -0.32090932 0.03250915 0.45265019
v -0.32841390 0.06463012 0.44411474
v -0.30292135 0.10987655 0.43520901
v -0.31328857 0.11057627 0.42915595
v -0.31251153 0.10103266 0.44523874
v -0.31133261 -0.10086031 0.44589359
v -0.31411165 -0.11061540 0.42860526
v -0.30383205 -0.10992482 0.43478593
v -0.30110666 -0.10055235 0.45017177
v -0.29255855 -0.10935179 0.43895856
v -0.29448864 -0.11680607 0.42390001
v 0.01605183 -0.10150778 0.45491761
v -0.29468358 0.00009741 0.46511766
v -0.29530495 0.03241548 0.46387470
v -0.30562147 -0.00000018 0.46168357
v 0.01646090 0.09371438 0.45988235
v 0.01770159 0.08523010 0.46390927
v -0.28175509 0.09993286 0.45355657
v 0.02931112 0.12950173 0.41157386
v 0.02484581 0.12715079 0.42101935
v 0.02119305 0.12315118 0.43025753
v -0.28063762 0.10908895 0.44047129
v -0.28170639 0.10086922 0.45254767
v 0.04843685 -0.12486292 0.38182515
v 0.06156457 -0.11256846 0.36803818
v 0.03479358 -0.12320224 0.37322992
v 0.04927396 -0.11911543 0.37100223
v -0.35529414 -0.10507229 0.35887584
v -0.35611609 -0.09097309 0.28524387
v -0.36000001 0.06347224 0.31103066
v -0.35978937 0.05261127 0.39855453
v -0.35931456 0.06453241 0.39835051
v -0.35576206 -0.10045256 0.29859930
v -0.33469892 -0.10603663 0.28524390
v -0.35045198 -0.09611308 0.28524390
v -0.33932248 -0.11304167 0.31861395
v -0.33611280 -0.11283154 0.40095466
v -0.33908004 -0.11357269 0.38948223
v -0.32180512 -0.12045332 0.39514530
v -0.35551980 -0.10455290 0.38418955
v -0.36000001 -0.06327018 0.32026434
v -0.35585636 -0.10270481 0.39170158
v -0.35325977 -0.10340323 0.40101665
v -0.35929218 -0.06453181 0.39856085
v -0.35591823 -0.06473633 0.40924630
v -0.36000001 -0.06429751 0.32545453
v 0.08446187 -0.06721631 0.36139014
v 0.07806078 0.01581800 0.40989199
v 0.08113041 0.01829216 0.40277418
v 0.06113828 0.11307278 0.36840913
v 0.04861521 0.12478312 0.38158256
v 0.05886165 0.07329989 0.34400409
v 0.07235652 0.07329985 0.35231563
v 0.05758027 0.01075748 0.32820699
v 0.07962748 0.08154017 0.35933653
v 0.04471672 0.07329994 0.33697325
v 0.03157951 0.05849956 0.32795694
v 0.03009874 0.07330001 0.33087438
v 0.07062677 0.08810031 0.35572362
v -0.30121517 0.11580673 0.29537153
v -0.32349882 0.11634983 0.29677731
v -0.32350001 0.11844809 0.30353314
v -0.32349962 0.12128100 0.33330768
v -0.14490823 -0.08728784 0.28524390
v -0.14974716 -0.09390723 0.28524390
v -0.12978438 -0.04731757 0.28524390
v -0.13506863 -0.06468940 0.28524387
v -0.14020790 -0.07805916 0.28524393
v -0.01669323 0.00000000 0.46991804
v -0.33841977 0.06464399 0.43508610
v -0.33326325 0.10203600 0.43031737
v -0.34655684 0.06473880 0.42549396
v -0.34261078 0.03264157 0.43368146
v -0.32699844 0.00000008 0.44947410
v -0.30196819 0.10066742 0.44984579
v -0.32298943 0.10149281 0.43878207
v -0.32313302 -0.11135254 0.42075026
v -0.33274052 -0.10205979 0.43077770
v -0.33041853 -0.11223519 0.41130465
v -0.34110591 -0.10248396 0.42186353
v -0.32225809 -0.10157655 0.43926904
v 0.01657997 -0.10969947 0.44803977
v -0.28175470 -0.10045221 0.45308790
v -0.28185746 -0.09928608 0.45381701
v -0.28237566 -0.06456453 0.46231648
v -0.30839518 0.03246540 0.45942903
v -0.31794322 0.06464788 0.45127434
v -0.30670476 0.06463734 0.45690960
v -0.31633425 0.00000016 0.45651653
v 0.01606048 0.10267657 0.45405185
v -0.28797585 0.06483369 0.46189269
v -0.29569104 0.06458728 0.46054831
v -0.29206714 0.10037170 0.45260191
v -0.32344684 0.12210388 0.37180915
v -0.32307050 0.12153582 0.38352105
v -0.30114901 0.11737759 0.42087930
v -0.32209972 0.12094082 0.39119706
v -0.28175470 0.10045221 0.45308790
v 0.02457727 -0.12327347 0.37122583
v -0.35637325 0.08450000 0.28524390
v -0.35600683 0.09207741 0.28524384
v -0.35590425 0.09833071 0.29711536
v -0.34022713 -0.11074962 0.30409855
v -0.35549000 -0.10304260 0.30883458
v -0.35545826 -0.10461060 0.33763990
v -0.35495877 -0.10444089 0.32198152
v -0.35520232 -0.10388875 0.39317954
v -0.32221740 -0.12098783 0.39063317
v -0.31452668 -0.11922655 0.40829423
v 0.08099194 -0.07798380 0.35956207
v 0.08184395 -0.07561876 0.35980803
v 0.07707807 -0.08741418 0.35947639
v 0.07235319 -0.09680702 0.36082244
v -0.12299214 -0.00000002 0.28527191
v 0.07210264 0.09726030 0.36092684
v -0.12579745 0.03174989 0.28524390
v -0.14029121 0.07825943 0.28524387
v -0.13513924 0.06488436 0.28524390
v -0.33968869 0.11111436 0.30458778
v -0.32350001 0.11000000 0.28524390
v -0.17150000 0.10415839 0.28524387
v 0.02233048 0.12490398 0.37496978
v -0.32947758 0.10979051 0.28524381
v -0.32350001 0.11987638 0.31220528
v -0.32350001 0.12013390 0.31470045
v -0.32350001 0.11924187 0.30760750
v -0.15056682 -0.09478725 0.28524390
v -0.00041631 -0.07330018 0.32119673
v -0.30839366 -0.03246540 0.45942968
v -0.28270081 -0.02556533 0.46595290
v -0.29530314 -0.03241547 0.46387514
v -0.28250301 -0.05289578 0.46373779
v 0.02108296 -0.07188925 0.46776369
v -0.35711566 0.03293303 0.40999740
v -0.35648769 0.06511358 0.40783194
v -0.35805938 -0.00000018 0.40883100
v -0.34579188 -0.00000024 0.43088359
v -0.35097620 -0.03276021 0.42224780
v -0.34261021 -0.03264157 0.43368211
v -0.35049656 -0.06477340 0.41975501
v -0.34822869 -0.10296348 0.41161716
v -0.34385926 -0.06455111 0.42896074
v -0.33352047 -0.06474577 0.43984270
v -0.33244884 -0.03256279 0.44394034
v -0.29141572 -0.10039671 0.45265156
v -0.29213095 -0.06533796 0.46130103
v -0.28269944 0.02651349 0.46589738
v -0.28180295 0.09928495 0.45381743
v -0.30977827 0.11852014 0.41378832
v -0.30374196 0.11774824 0.41886768
v -0.31927645 0.12014402 0.39990726
v -0.31557423 0.11941782 0.40669161
v -0.28572741 0.11610261 0.42677230
v -0.29151249 0.10930902 0.43921921
v -0.28177622 0.10019313 0.45336321
v 0.02544168 -0.11932220 0.36384755
v -0.34840992 0.10298773 0.41130698
v -0.35295963 0.10344696 0.40176126
v -0.34211501 0.10263254 0.42056820
v -0.32349208 -0.12218025 0.37181264
v -0.32310501 -0.12169055 0.38128874
v -0.35606128 -0.10316490 0.34038866
v -0.31936502 -0.12016417 0.39970458
v 0.07235652 -0.07329985 0.35231563
v 0.05886165 -0.07329989 0.34400409
v 0.07044733 -0.01362835 0.42467278
v 0.03178303 0.12712717 0.38304389
v -0.00041631 0.07330018 0.32119673
v 0.01278483 0.08810057 0.33008707
v 0.08184421 0.07561793 0.35980812
v 0.06040958 0.00860104 0.33023423
v -0.00577706 0.05692366 0.31606477
v -0.00172996 0.04972218 0.31588879
v -0.14480075 0.08711020 0.28524390
v -0.00912653 0.04341451 0.31338403
v -0.35573849 0.10111284 0.30049518
v -0.35527796 0.09964620 0.29655188
v -0.33932397 0.11305512 0.31882393
v 0.04471672 -0.07329994 0.33697325
v 0.05385331 -0.01746928 0.32793534
v -0.07943608 0.01729975 0.47085080
v -0.07918785 -0.01680754 0.47085080
v -0.35306308 -0.00000035 0.41985789
v -0.35097650 0.03276021 0.42224735
v -0.35711557 -0.03293302 0.40999764
v -0.33636630 -0.00000015 0.44142786
v -0.32459041 -0.06456056 0.44693905
v -0.31955478 -0.06495320 0.45013455
v -0.30214593 -0.06456905 0.45863998
v -0.28276294 0.00000000 0.46662259
v -0.10085742 0.00000000 0.47085145
v -0.31994668 0.11998408 0.40011963
v -0.29448912 0.11665131 0.42436880
v -0.29589117 0.11692952 0.42330882
v -0.35575649 0.10268515 0.39228773
v -0.32327697 -0.12155203 0.38312212
v 0.05965011 -0.00656250 0.32924181
v 0.07694374 -0.01511835 0.41233605
v 0.04250872 -0.08810041 0.34132347
v 0.03009874 -0.07330001 0.33087438
v -0.16095699 -0.10230844 0.28524518
v 0.02037136 -0.11030132 0.35003915
v 0.04959450 -0.11470028 0.36509141
v 0.04927386 0.11911543 0.37100220
v -0.17112562 0.10413476 0.28524390
v -0.16536230 0.10354798 0.28524390
v 0.03479358 0.12320224 0.37322992
v 0.05829157 0.10256943 0.35712460
v 0.04983440 0.11157198 0.36156377
v 0.05525894 0.09550060 0.35110214
v 0.02609656 0.09550074 0.33875948
v -0.15417634 0.09827237 0.28524393
v 0.05385330 0.01746927 0.32793534
v 0.00111965 0.05849973 0.31817052
v 0.08446178 0.06721667 0.36139002
v 0.06230506 -0.00000048 0.33192468
v -0.13327205 0.05883587 0.28524390
v -0.12978438 0.04731757 0.28524390
v -0.12921594 0.04513143 0.28524390
v 0.00731881 0.02483730 0.31548050
v -0.14927065 0.09342081 0.28524435
v -0.34398273 0.10098675 0.28524387
v -0.00172996 -0.04972218 0.31588879
v -0.13327205 -0.05883588 0.28524390
v 0.00720190 -0.02441905 0.31542152
v -0.00830566 -0.04496961 0.31375629
v -0.35227275 0.06454463 0.41666174
v -0.33994821 -0.06495270 0.43327343
v -0.32090813 -0.03250915 0.45265096
v -0.31160587 -0.06478997 0.45471999
v -0.31023380 0.11834571 0.41422266
v -0.32253551 0.11129899 0.42136270
v -0.33015704 0.11205202 0.41211054
v -0.31536615 0.11911386 0.40818566
v -0.28832194 0.11635767 0.42587972
v -0.35463297 0.10374431 0.39593136
v -0.35645193 0.10297028 0.38411763
v -0.33584633 0.11278889 0.40161127
v 0.05757583 -0.01075982 0.32820454
v 0.05535499 -0.10304523 0.35618600
v 0.05525894 -0.09550060 0.35110214
v 0.02422148 -0.11086959 0.35189328
v 0.00856955 -0.10290109 0.33839199
v 0.01105309 -0.09550082 0.33349895
v 0.02783962 -0.08810049 0.33532536
v 0.02560618 0.11938358 0.36398870
v 0.02457727 0.12327347 0.37122583
v 0.04250872 0.08810041 0.34132347
v -0.15977551 0.10179135 0.28524902
v 0.01652623 0.05849964 0.32271570
v 0.00111965 -0.05849973 0.31817052
v 0.00895627 -0.01426561 0.31531698
v -0.10013591 -0.01765532 0.47085080
v -0.33957538 0.11407323 0.37821883
v -0.32287806 0.12080953 0.39100558
v 0.05679152 -0.08810036 0.34808266
v -0.15510143 -0.09895035 0.28524390
v 0.03628261 -0.11612710 0.36212668
v 0.02367936 -0.10290101 0.34352183
v 0.03628261 0.11612710 0.36212668
v 0.05679152 0.08810036 0.34808266
v 0.02783962 0.08810049 0.33532536
v 0.01528421 0.03581448 0.31874901
v 0.01652623 -0.05849964 0.32271570
v 0.00820979 -0.01927872 0.31536159
v 0.00895627 0.01426561 0.31531698
v -0.35611013 0.10345780 0.34755334
v -0.35591927 0.10284138 0.32238343
v -0.32385319 0.12144671 0.38251701
v -0.33909073 0.11348055 0.39014003
v 0.05435071 -0.00000000 0.32741770
v 0.07062677 -0.08810031 0.35572362
v 0.01278483 -0.08810057 0.33008707
v 0.02273611 -0.11198915 0.35278067
v 0.04435573 -0.10608697 0.35383496
v 0.02609656 -0.09550074 0.33875948
v 0.03076062 0.10954198 0.35251439
v 0.02273611 0.11198915 0.35278067
v 0.02037136 0.11030132 0.35003915
v 0.03157951 -0.05849956 0.32795694
v 0.01101799 -0.02741988 0.31666094
v 0.00731950 0.00000002 0.31487530
v -0.35547736 0.10312124 0.30929941
v 0.03145703 0.10245182 0.34591118
v 0.01531173 -0.03810365 0.31903583
v -0.33946294 0.11446718 0.35452449
v 0.01105308 0.09550082 0.33349895
v -0.35555476 0.10483041 0.36707568
v -0.35544914 0.10444657 0.38698363
v -0.35496745 0.10448865 0.32316929
v -0.35515633 0.10502455 0.34480026
v 0.00856955 0.10290109 0.33839199
v -0.33055231 -0.10936220 0.05813730
v -0.34437302 0.09936170 -0.00068663
v -0.32150674 -0.11410818 -0.00068662
v 0.00100005 -0.09132493 -0.00068658
v -0.35461754 -0.09229746 0.10302923
v -0.17150000 -0.10415839 0.10322270
v -0.35727626 -0.06496340 0.10302922
v -0.33055231 0.10936220 0.05813730
v -0.32975689 0.10964721 0.10302943
v -0.32150674 0.11410818 -0.00068662
v -0.00667449 -0.09426156 0.02733417
v -0.24745502 -0.11069793 0.09534433
v -0.21441689 -0.10930239 0.09328517
v -0.35777834 -0.03282880 0.10302921
v -0.35821828 0.00000000 0.10302922
v -0.35462371 0.09223505 0.10302923
v -0.35261115 0.09257239 -0.00068662
v -0.35727626 0.06496340 0.10302922
v -0.00667449 0.09426156 0.02733417
v 0.00099999 0.09132493 -0.00068659
v -0.29700202 0.11314632 0.09586200
v -0.17846824 0.10781465 0.08884855
v -0.35605976 -0.06496195 0.05668895
v -0.32987669 -0.10957848 0.10302921
v -0.15928544 -0.10681666 0.08608540
v -0.31452319 -0.11066856 0.10302922
v -0.29700202 -0.11314632 0.09586200
v -0.31835663 -0.11396906 0.08953161
v -0.34298515 -0.10128605 0.10302920
v -0.34293500 -0.10097549 0.04371532
v -0.33889931 -0.10348095 -0.00068662
v -0.34293500 0.10097549 0.04371532
v -0.34683186 0.09798516 0.03718206
v -0.34305850 0.10122686 0.10302921
v -0.33889931 0.10348095 -0.00068662
v -0.35084581 0.09416520 -0.00068663
v -0.35605976 0.06496195 0.05668895
v -0.00718241 0.09427691 0.02772752
v -0.15928544 0.10681666 0.08608540
v -0.00098188 0.09196032 0.01912887
v -0.00061508 0.09178965 0.01807140
v 0.00100000 0.09124925 -0.00000000
v -0.35539487 -0.06480309 0.03551750
v -0.34150547 0.10229048 0.10302921
v -0.00718241 -0.09427691 0.02772752
v -0.16354084 -0.10323368 0.10302918
v -0.16000219 -0.10248443 0.10302920
v -0.00704606 0.06633475 0.03110171
v -0.00622847 0.06295308 0.03075197
v -0.13231505 0.06346689 0.10302921
v -0.32961094 -0.10969932 0.10302919
v -0.31532845 -0.11383606 0.09476809
v -0.31585208 -0.11065961 0.10302921
v -0.28049493 -0.11222131 0.09608478
v -0.31268579 -0.11369182 0.09553324
v -0.17846824 -0.10781465 0.08884855
v -0.31759575 -0.11393544 0.09239630
v -0.12914413 0.04715980 0.10302921
v -0.34683186 -0.09798516 0.03718206
v -0.35229909 0.09411173 0.10302921
v -0.35785967 0.00000000 0.08401251
v -0.35084581 -0.09416520 -0.00068663
v -0.13465694 0.07035284 0.10302921
v -0.13753313 0.07787687 0.10302922
v -0.14209892 0.08668055 0.10302921
v -0.15065491 0.09678818 0.10302920
v -0.14734060 0.09360722 0.10302909
v -0.15678428 0.10091012 0.10302919
v -0.15328318 0.09895512 0.10302919
v -0.16711864 0.10394533 0.10302919
v -0.16000219 0.10248443 0.10302920
v -0.15473881 0.10633638 0.08507767
v -0.18042104 0.10787649 0.08984032
v -0.21441689 0.10930239 0.09328517
v -0.24745502 0.11069793 0.09534433
v -0.31835663 0.11396906 0.08953161
v -0.15678418 -0.10091006 0.10302919
v -0.15328313 -0.09895509 0.10302919
v -0.16713180 -0.10394785 0.10302833
v -0.00098188 -0.09196032 0.01912887
v -0.00109150 0.06437910 0.02279203
v -0.18042104 -0.10787649 0.08984032
v -0.13231505 -0.06346689 0.10302921
v -0.12903634 -0.04660354 0.10302730
v -0.13752855 -0.07786446 0.10302946
v -0.13465694 -0.07035284 0.10302921
v -0.12644431 -0.02798969 0.10302921
v -0.12672554 -0.03111171 0.10302922
v -0.12501228 -0.00000001 0.10302922
v -0.34437302 -0.09936170 -0.00068663
v -0.35480613 0.01181874 -0.00068663
v -0.35400990 0.06496704 -0.00068663
v -0.35539487 0.06480309 0.03551750
v -0.28049493 0.11222131 0.09608478
v -0.31268579 0.11369182 0.09553324
v -0.31452319 0.11066856 0.10302922
v -0.31530330 0.11383530 0.09479067
v -0.31759575 0.11393544 0.09239630
v -0.15473881 -0.10633638 0.08507767
v -0.00091163 0.04608157 0.02401088
v 0.00100000 -0.09124925 -0.00000000
v -0.00650700 -0.04673138 0.03258529
v -0.00109150 -0.06437910 0.02279203
v -0.00091163 -0.04608157 0.02401088
v -0.00116828 -0.03362098 0.02534009
v -0.00088951 0.00000000 0.02539135
v -0.15065487 -0.09678814 0.10302920
v -0.14758024 -0.09384117 0.10302921
v -0.14631425 -0.09225941 0.10302921
v -0.14208998 -0.08666269 0.10302956
v -0.17150000 0.10415839 0.10322270
v -0.12672554 0.03111171 0.10302922
v -0.12644431 0.02798969 0.10302921
v -0.12501228 0.00000001 0.10302922
v -0.34150547 -0.10229048 0.10302921
v -0.00074502 -0.06805150 0.02133462
v -0.00622847 -0.06295308 0.03075197
v -0.00612375 -0.03278551 0.03307370
v -0.00081995 0.04603208 0.02348020
v -0.00116828 0.03362098 0.02534009
v -0.00612375 0.03278551 0.03307370
v -0.00063132 -0.09178956 0.01807876
v -0.00081995 -0.04603208 0.02348020
v -0.00704606 -0.06633475 0.03110171
v -0.00689583 -0.03368502 0.03372321
v -0.00119709 0.00000000 0.02629340
v -0.00689583 0.03368502 0.03372321
v -0.00677632 0.00000000 0.03459264
v -0.00608688 0.00000000 0.03393574
v -0.00650700 0.04673138 0.03258529
v -0.31456676 0.11070764 0.10302923
v -0.35604376 -0.09197908 0.28000000
v -0.35816655 -0.06459001 0.13885887
v -0.35495093 -0.09216797 0.11982640
v -0.35956809 0.00000005 0.17460643
v -0.35783723 0.06460468 0.12141348
v -0.35833010 0.06458340 0.14937478
v -0.35495099 0.09216796 0.11982642
v -0.20784718 0.10585693 0.10302921
v -0.31777918 0.10977787 0.10300000
v -0.18537846 0.10482416 0.10302922
v -0.31777918 -0.10977787 0.10300000
v -0.35738051 0.06466774 0.10302921
v -0.35889134 -0.06459558 0.25099996
v -0.35978669 -0.00000000 0.28000000
v -0.12672552 0.03111171 0.10302923
v -0.33906683 0.10427580 0.28200001
v -0.35889134 0.06459558 0.25099996
v -0.32940990 0.10976497 0.19037141
v -0.32958689 0.10970170 0.10300501
v -0.35925537 -0.03230874 0.28253675
v -0.35887194 -0.06344819 0.28185844
v -0.35873169 -0.06461602 0.28230608
v -0.33210000 -0.10842506 0.25691032
v -0.34771639 -0.09844377 0.28200001
v -0.15675780 0.10089209 0.10302921
v -0.15325108 0.09893379 0.10302921
v -0.15057129 0.09662180 0.10302920
v -0.14715225 0.09341601 0.10302922
v -0.15999490 0.10248192 0.10302922
v -0.12914415 0.04715980 0.10302922
v -0.12505309 0.00097763 0.10302922
v -0.12644425 0.02798922 0.10302922
v -0.13327667 0.06662875 0.10302921
v -0.16706285 0.10394089 0.10302921
v -0.35461465 0.09232321 0.10302924
v -0.35884717 0.06457125 0.28207010
v -0.35977900 0.00012485 0.28207740
v -0.32994610 0.10957780 0.28200001
v -0.33210000 0.10843289 0.24899870
v -0.32350001 -0.10999764 0.10300000
v -0.35883775 -0.06462718 0.28185976
v -0.33210000 -0.10844073 0.24108709
v -0.32958660 -0.10971187 0.11692721
v -0.34405488 -0.10097619 0.25575632
v -0.35014480 -0.09655859 0.24514942
v -0.14172524 0.08608720 0.10302919
v -0.13755070 0.07794166 0.10302920
v -0.16908391 0.10404845 0.10302921
v -0.16353582 0.10323171 0.10302920
v -0.35604376 0.09197908 0.28000000
v -0.34229642 0.10176636 0.10302921
v -0.34308052 0.10127167 0.11360212
v -0.34402350 0.10097605 0.24224345
v -0.33814386 0.10483401 0.24163565
v -0.20726988 -0.10583181 0.10302918
v -0.35057968 0.09623488 0.24540317
v -0.33064735 0.10933778 0.10302921
v -0.35954630 0.03231336 0.28183395
v -0.17608061 -0.10437941 0.10302921
v -0.34764156 0.09841853 0.24320480
v -0.11132395 -0.09731819 0.06456804
v 0.13256203 -0.14183655 0.00000000
v 0.12858640 -0.17368394 0.00000001
v 0.06000000 -0.14300001 -0.01400000
v 0.13037042 -0.09868619 0.00000036
v -0.32100126 -0.11872384 -0.00068662
v -0.31200197 -0.16098996 0.02500000
v 0.13463067 -0.11149617 0.00000000
v 0.13490440 -0.10237326 -0.00000165
v 0.06000000 -0.14559552 -0.01340956
v 0.00100000 -0.18942238 0.00000000
v 0.04081276 -0.18713228 -0.00000001
v 0.02187658 -0.18735921 0.02011778
v 0.06000000 -0.14040448 -0.01340956
v 0.13068613 -0.14055151 0.02460136
v 0.13225542 -0.13832781 0.01800005
v 0.13411942 -0.10614183 0.01960320
v 0.08934217 -0.18221813 0.00000000
v 0.12606014 -0.17766054 0.00000300
v 0.13283429 -0.09961823 0.00000000
v 0.13254678 -0.10249459 0.01911537
v -0.30670804 -0.17588821 0.02500000
v -0.30816680 -0.16505009 0.08378893
v -0.30613774 -0.11342935 0.09574533
v -0.31151506 -0.15489307 0.08551832
v -0.29857785 -0.18841083 0.08031226
v -0.29579821 -0.19409178 0.06566712
v -0.09064103 -0.18711691 0.06015491
v -0.19507496 -0.19023271 0.07065378
v -0.03855546 -0.18666874 0.05264508
v 0.05239872 -0.18347430 0.03697468
v 0.09446266 -0.17942667 0.03102739
v 0.06527732 -0.18194725 0.03662812
v -0.25698391 -0.17994484 0.08346922
v -0.21111728 -0.18037218 0.07994267
v -0.03073455 -0.18935639 0.02384442
v 0.01050809 -0.18607032 0.04342012
v -0.29072744 -0.19646244 0.06579225
v -0.29073244 -0.19650880 0.06502907
v 0.13247342 -0.10511529 0.02655662
v -0.30687585 -0.16493191 0.08567620
v -0.31224135 -0.13939895 0.09054247
v -0.30285555 -0.16446334 0.08736067
v -0.31751615 -0.12173578 0.08824447
v -0.30247009 -0.18078370 0.07922716
v -0.29408577 -0.19762005 0.03168466
v -0.12684780 -0.18107660 0.06970213
v -0.04964890 -0.18240175 0.05765679
v -0.13235439 -0.11172091 0.08270252
v -0.29697832 -0.17920470 0.08493829
v -0.29765210 -0.18344788 0.08384188
v -0.24707676 -0.19285952 0.07262132
v -0.24696158 -0.18971813 0.07752759
v -0.29436529 -0.19314538 0.07602417
v -0.29350153 -0.19557367 0.07103014
v -0.24699196 -0.18511954 0.08110495
v -0.29344061 -0.18927246 0.08026028
v -0.18145196 -0.10782236 0.09021600
v -0.19295029 -0.18048127 0.07809753
v -0.18379825 -0.18053475 0.07708432
v 0.12872343 -0.16851561 0.01800007
v 0.12924643 -0.10584835 0.03228367
v 0.04053206 -0.10430147 0.05135302
v 0.11256934 -0.10504427 0.04027740
v 0.11922565 -0.10677109 0.04027652
v 0.11276308 -0.10701089 0.04160560
v -0.08360469 -0.09650877 0.05589774
v 0.11225325 -0.10392512 0.03821639
v -0.05225364 -0.09559331 0.04557258
v 0.12943839 -0.10121239 0.01858732
v -0.31622130 -0.14396150 0.02500000
v -0.06741116 -0.11025224 0.07218418
v 0.11482492 -0.14330445 0.03693282
v 0.11278661 -0.10943624 0.04187772
v -0.14253962 -0.18628326 0.06900398
v -0.09017018 -0.18383761 0.06348026
v -0.14190824 -0.10373113 0.08005685
v 0.01320823 -0.18505327 0.04550532
v -0.19483022 -0.18779080 0.07430052
v -0.10629716 -0.10951933 0.07870604
v -0.19472876 -0.18429522 0.07696287
v -0.14747758 -0.10489892 0.08270949
v -0.03301435 -0.10496001 0.06426167
v -0.05985673 -0.09581532 0.04823738
v 0.12878947 -0.10186002 0.02287898
v -0.31572890 -0.13176584 0.08883799
v 0.12490962 -0.10870223 0.03650473
v 0.12119313 -0.14102240 0.03515337
v -0.09036215 -0.18575649 0.06208697
v -0.03816339 -0.18411721 0.05525284
v 0.11472834 -0.17522553 0.03198279
v 0.01368804 -0.18321395 0.04691617
v 0.06539422 -0.18098801 0.03804100
v -0.00397583 -0.18224378 0.05020929
v -0.04728606 -0.18723771 0.05224119
v -0.03279015 -0.10629635 0.06542867
v -0.14236732 -0.18369296 0.07092053
v 0.12300124 -0.10328434 0.03262116
v 0.12688155 -0.14097345 0.03071644
v -0.03832295 -0.18561839 0.05416419
v 0.11467104 -0.17676203 0.03014939
v -0.26978242 -0.19537240 0.06683086
v -0.03265662 -0.10796529 0.06605694
v -0.10641514 -0.10792904 0.07819166
v 0.12636499 -0.10269511 0.02850999
v 0.12602007 -0.17626052 0.02426027
v 0.11459608 -0.17298034 0.03291099
v 0.12359021 -0.17491853 0.02802966
v 0.11985006 -0.17324939 0.03115379
v -0.11132395 0.09731819 0.06456804
v 0.12858640 0.17368394 0.00000001
v 0.13256203 0.14183655 0.00000000
v 0.06000000 0.14300001 -0.01400000
v 0.13037054 0.09868620 0.00000036
v -0.32100126 0.11872384 -0.00068662
v -0.31200194 0.16099007 0.02499977
v 0.13463067 0.11149617 0.00000000
v 0.13490438 0.10237326 -0.00000165
v 0.06000000 0.14559552 -0.01340956
v -0.29156002 0.19964921 -0.00068662
v 0.00100000 0.18942238 0.00000000
v 0.04081247 0.18713230 0.00000001
v 0.02187658 0.18735921 0.02011778
v 0.06000000 0.14040448 -0.01340956
v 0.13225542 0.13832781 0.01800005
v 0.13068613 0.14055151 0.02460136
v 0.13411942 0.10614183 0.01960319
v 0.08934217 0.18221813 0.00000000
v 0.12606014 0.17766054 0.00000300
v 0.13283429 0.09961823 0.00000000
v 0.13254680 0.10249458 0.01911531
v -0.30670804 0.17588821 0.02500000
v -0.30816680 0.16505009 0.08378893
v -0.30613774 0.11342935 0.09574533
v -0.31151509 0.15489294 0.08551832
v -0.19507496 0.19023271 0.07065378
v -0.09064103 0.18711691 0.06015491
v -0.03855546 0.18666874 0.05264508
v 0.05305788 0.18336649 0.03759558
v 0.09446266 0.17942667 0.03102739
v -0.25698391 0.17994484 0.08346922
v -0.21111728 0.18037218 0.07994267
v -0.03073455 0.18935639 0.02384442
v 0.01050809 0.18607032 0.04342012
v -0.29072744 0.19646244 0.06579225
v -0.29073244 0.19650880 0.06502907
v 0.13247344 0.10511529 0.02655659
v -0.30687585 0.16493191 0.08567620
v -0.31224129 0.13939930 0.09054241
v -0.30285555 0.16446334 0.08736067
v -0.31751615 0.12173578 0.08824447
v -0.29684103 0.19685771 -0.00068662
v -0.30247009 0.18078370 0.07922716
v -0.29914543 0.18758942 0.07642138
v -0.29408577 0.19762005 0.03168466
v -0.29491687 0.19876634 -0.00068663
v -0.29579821 0.19409178 0.06566712
v -0.04964890 0.18240175 0.05765679
v -0.12684780 0.18107660 0.06970213
v -0.13235439 0.11172091 0.08270252
v -0.29697832 0.17920470 0.08493829
v -0.29862174 0.18387368 0.08370188
v -0.24707676 0.19285952 0.07262132
v -0.24696158 0.18971813 0.07752759
v -0.29436532 0.19314539 0.07602415
v -0.29350150 0.19557367 0.07103017
v -0.24699196 0.18511954 0.08110495
v -0.29344088 0.18927242 0.08026034
v -0.18145196 0.10782236 0.09021600
v -0.19295029 0.18048127 0.07809753
v -0.18379825 0.18053475 0.07708432
v 0.12872343 0.16851561 0.01800007
v 0.12924640 0.10584837 0.03228374
v 0.04053206 0.10430147 0.05135302
v 0.11256934 0.10504427 0.04027740
v 0.11922558 0.10677108 0.04027654
v 0.11276308 0.10701089 0.04160560
v -0.08360469 0.09650877 0.05589774
v 0.11225325 0.10392512 0.03821639
v 0.11798824 0.10373130 0.03609889
v -0.05225364 0.09559331 0.04557258
v 0.12943839 0.10121239 0.01858732
v -0.31622130 0.14396150 0.02500000
v -0.29748702 0.19084622 0.07242588
v -0.29309279 0.19950525 -0.00068690
v 0.11482492 0.14330445 0.03693282
v -0.06741116 0.11025224 0.07218418
v 0.11278661 0.10943624 0.04187772
v -0.14253962 0.18628326 0.06900398
v -0.09017018 0.18383761 0.06348026
v -0.14190824 0.10373113 0.08005685
v 0.01320811 0.18505327 0.04550533
v -0.19483022 0.18779080 0.07430052
v -0.10629716 0.10951933 0.07870604
v -0.19472876 0.18429522 0.07696287
v -0.03301435 0.10496001 0.06426167
v -0.14747758 0.10489892 0.08270949
v -0.05985673 0.09581532 0.04823738
v 0.12878947 0.10186002 0.02287898
v -0.31572890 0.13176584 0.08883799
v 0.12490971 0.10870227 0.03650466
v 0.12119313 0.14102240 0.03515337
v -0.09036215 0.18575649 0.06208697
v -0.03816339 0.18411721 0.05525284
v 0.01368804 0.18321395 0.04691617
v 0.11472832 0.17522556 0.03198277
v 0.06539422 0.18098801 0.03804100
v -0.00397583 0.18224378 0.05020929
v -0.04728606 0.18723771 0.05224119
v -0.03279015 0.10629635 0.06542867
v -0.14236732 0.18369296 0.07092053
v 0.12300124 0.10328434 0.03262116
v 0.12688155 0.14097345 0.03071644
v -0.03832295 0.18561839 0.05416419
v 0.11467104 0.17676203 0.03014939
v -0.26978242 0.19537240 0.06683086
v -0.03265662 0.10796529 0.06605694
v -0.10641514 0.10792904 0.07819166
v 0.12636499 0.10269511 0.02850999
v 0.12602006 0.17626052 0.02426029
v 0.11459608 0.17298034 0.03291099
v 0.12359019 0.17491853 0.02802968
v 0.11985007 0.17324941 0.03115378
f 1 2 3
f 4 5 3
f 2 4 3
f 4 2 6
f 2 7 6
f 5 8 9
f 8 5 4
f 3 10 1
f 5 10 3
f 8 11 9
f 11 8 12
f 1 10 13
f 14 13 10
f 15 16 17
f 18 12 4
f 12 18 19
f 11 12 20
f 10 21 14
f 22 23 24
f 22 24 25
f 26 25 24
f 17 27 15
f 28 29 30
f 30 31 28
f 28 31 17
f 27 31 30
f 17 31 27
f 24 32 26
f 8 33 12
f 12 33 34
f 8 4 33
f 35 36 37
f 38 35 39
f 4 6 7
f 40 41 42
f 11 40 9
f 41 40 11
f 40 43 9
f 43 5 9
f 44 40 42
f 44 45 40
f 21 40 45
f 10 5 40
f 2 32 7
f 4 32 18
f 23 32 24
f 2 1 32
f 35 46 47
f 37 46 35
f 48 49 50
f 49 46 37
f 51 26 32
f 26 51 52
f 32 53 51
f 52 51 53
f 54 30 55
f 55 30 29
f 53 56 52
f 57 58 59
f 60 61 62
f 29 60 62
f 28 60 29
f 34 33 4
f 20 12 39
f 35 38 36
f 12 63 4
f 40 21 10
f 7 32 4
f 22 32 23
f 26 50 64
f 65 66 67
f 57 68 65
f 68 69 66
f 65 68 66
f 54 57 59
f 54 70 71
f 70 58 71
f 72 58 73
f 74 58 75
f 76 77 71
f 77 54 71
f 77 76 78
f 32 79 80
f 81 80 79
f 82 74 75
f 81 82 80
f 82 75 80
f 16 15 79
f 16 13 17
f 60 83 84
f 61 60 84
f 60 28 85
f 17 85 28
f 12 38 39
f 26 86 25
f 49 37 87
f 50 87 64
f 49 87 50
f 57 88 58
f 43 40 5
f 32 22 18
f 89 90 15
f 54 91 57
f 68 57 91
f 54 55 91
f 54 59 70
f 59 58 70
f 71 58 74
f 74 76 71
f 52 92 72
f 92 58 72
f 56 92 52
f 90 93 15
f 93 78 15
f 78 93 77
f 74 82 76
f 79 82 81
f 13 16 79
f 13 79 94
f 94 79 1
f 1 79 32
f 19 18 95
f 34 63 12
f 63 34 4
f 67 96 65
f 72 97 52
f 97 98 52
f 98 99 52
f 52 99 26
f 99 50 26
f 97 72 100
f 97 100 98
f 100 99 98
f 27 89 15
f 89 27 30
f 54 89 30
f 75 32 80
f 75 58 32
f 92 32 58
f 92 56 32
f 56 53 32
f 93 90 54
f 93 54 77
f 89 54 90
f 79 76 82
f 79 78 76
f 78 79 15
f 13 60 17
f 85 17 60
f 25 86 95
f 22 101 18
f 25 101 22
f 87 36 64
f 87 37 36
f 38 102 36
f 12 19 38
f 95 38 19
f 86 38 95
f 65 88 57
f 88 65 73
f 58 88 73
f 67 46 49
f 48 103 96
f 96 103 65
f 65 103 73
f 49 48 67
f 96 67 48
f 104 72 73
f 60 105 106
f 60 106 83
f 95 18 101
f 95 101 25
f 64 102 26
f 36 102 64
f 38 86 102
f 102 86 26
f 107 103 48
f 105 60 13
f 107 108 104
f 108 107 48
f 48 50 108
f 108 100 104
f 99 108 50
f 107 104 103
f 104 73 103
f 104 100 72
f 100 108 99
f 13 94 1
f 47 46 69
f 69 46 66
f 84 83 44
f 44 83 45
f 46 67 66
f 20 91 11
f 11 91 41
f 29 62 91
f 44 42 91
f 69 91 47
f 44 91 84
f 35 47 91
f 20 39 91
f 29 91 55
f 35 91 39
f 61 84 91
f 41 91 42
f 61 91 62
f 68 91 69
f 21 105 14
f 106 105 21
f 14 105 13
f 83 106 45
f 106 21 45
f 109 110 111
f 112 113 114
f 112 114 115
f 116 115 114
f 109 115 116
f 109 117 110
f 117 118 110
f 113 119 114
f 113 112 119
f 120 121 122
f 123 124 125
f 126 127 128
f 129 130 128
f 131 111 110
f 110 118 132
f 132 118 133
f 134 135 128
f 128 136 137
f 111 138 109
f 109 138 139
f 140 141 128
f 142 140 128
f 142 128 143
f 144 145 121
f 145 146 121
f 128 147 143
f 148 147 128
f 149 150 151
f 152 153 154
f 151 155 149
f 149 155 128
f 150 149 156
f 128 156 149
f 121 157 158
f 128 159 160
f 119 161 159
f 127 119 159
f 127 159 128
f 162 119 112
f 119 163 161
f 163 160 161
f 162 163 119
f 162 112 163
f 109 164 115
f 130 165 126
f 165 130 129
f 166 165 129
f 130 126 128
f 132 167 131
f 131 167 111
f 131 110 132
f 168 117 109
f 117 168 118
f 119 116 114
f 169 170 171
f 172 173 128
f 174 175 128
f 176 177 134
f 134 177 178
f 177 176 179
f 121 179 122
f 180 181 121
f 172 180 173
f 121 182 183
f 184 185 121
f 186 184 121
f 187 184 186
f 136 180 188
f 188 180 121
f 188 121 189
f 136 189 137
f 188 189 136
f 137 148 128
f 190 124 144
f 190 144 121
f 123 191 124
f 191 144 124
f 192 193 194
f 195 196 197
f 198 199 200
f 201 200 202
f 128 155 152
f 202 200 203
f 155 203 152
f 141 204 128
f 205 206 207
f 208 209 121
f 209 190 121
f 208 210 209
f 121 211 212
f 121 213 157
f 214 157 213
f 214 215 157
f 160 159 161
f 216 217 128
f 216 218 219
f 220 165 166
f 109 221 168
f 168 221 118
f 222 132 133
f 133 223 222
f 224 222 223
f 225 221 109
f 226 225 227
f 116 225 226
f 127 228 119
f 229 230 231
f 230 232 166
f 118 221 233
f 118 233 133
f 133 233 171
f 234 235 236
f 236 235 237
f 238 234 170
f 173 136 128
f 174 128 239
f 179 178 177
f 121 178 179
f 175 176 128
f 128 176 134
f 240 241 121
f 173 180 136
f 180 172 181
f 121 181 240
f 242 243 121
f 244 245 246
f 246 245 247
f 247 245 244
f 248 249 250
f 247 244 251
f 252 253 254
f 185 255 121
f 256 257 109
f 139 258 109
f 109 258 259
f 259 260 109
f 144 261 143
f 146 189 121
f 192 194 262
f 262 194 263
f 262 264 265
f 262 265 192
f 193 192 266
f 267 195 197
f 268 263 194
f 269 199 270
f 271 269 272
f 199 269 154
f 198 273 199
f 200 201 198
f 203 153 152
f 274 156 128
f 156 275 150
f 274 275 156
f 204 141 275
f 140 276 141
f 275 141 276
f 140 142 276
f 277 276 142
f 204 274 128
f 275 274 204
f 193 278 279
f 278 206 280
f 206 278 207
f 278 193 281
f 207 278 281
f 158 282 121
f 282 208 121
f 282 210 208
f 283 123 125
f 190 125 124
f 206 284 280
f 267 284 285
f 280 284 267
f 286 287 121
f 211 288 212
f 211 287 289
f 121 287 211
f 212 213 121
f 290 158 157
f 215 290 157
f 215 214 285
f 285 290 215
f 160 216 128
f 216 160 163
f 219 217 216
f 218 291 164
f 218 163 291
f 164 291 115
f 115 291 112
f 163 112 291
f 218 216 163
f 292 132 293
f 293 132 222
f 292 293 111
f 294 293 222
f 227 116 226
f 116 227 109
f 295 116 119
f 228 127 126
f 295 119 228
f 228 296 295
f 220 297 165
f 297 298 165
f 232 220 166
f 234 299 235
f 230 300 231
f 301 152 154
f 302 303 128
f 303 239 128
f 122 175 174
f 241 178 121
f 304 302 128
f 305 304 128
f 217 305 128
f 121 243 186
f 138 306 139
f 251 307 247
f 121 247 307
f 308 138 111
f 309 310 111
f 253 311 254
f 312 252 313
f 314 313 252
f 111 315 312
f 255 182 121
f 316 317 184
f 311 318 254
f 316 318 311
f 254 318 186
f 187 186 318
f 184 187 318
f 316 184 318
f 257 319 109
f 319 257 320
f 260 256 109
f 281 321 207
f 322 323 324
f 207 323 205
f 321 323 207
f 143 325 142
f 277 142 325
f 189 146 137
f 279 268 194
f 193 279 194
f 280 197 279
f 223 326 327
f 171 328 133
f 223 133 328
f 223 328 326
f 329 330 331
f 332 333 272
f 330 334 331
f 334 330 332
f 272 334 332
f 266 281 193
f 335 336 331
f 267 197 280
f 196 268 197
f 269 270 272
f 273 270 199
f 202 151 150
f 202 150 337
f 275 337 150
f 276 337 275
f 276 338 337
f 338 276 277
f 277 324 338
f 323 338 324
f 278 280 279
f 205 339 206
f 205 323 322
f 339 123 206
f 285 340 210
f 285 283 340
f 125 340 283
f 190 340 125
f 209 210 340
f 209 340 190
f 283 206 123
f 286 121 183
f 211 341 342
f 343 344 211
f 345 214 213
f 345 213 212
f 345 346 214
f 346 285 214
f 195 267 346
f 285 210 347
f 158 347 282
f 282 347 210
f 218 348 219
f 111 167 292
f 292 167 132
f 223 327 224
f 349 350 327
f 262 351 264
f 227 225 109
f 228 165 298
f 165 228 126
f 296 225 295
f 128 352 129
f 166 129 352
f 230 166 352
f 352 353 230
f 128 353 352
f 229 271 333
f 235 229 333
f 229 235 230
f 297 220 354
f 235 299 230
f 354 296 297
f 234 236 170
f 171 170 236
f 171 238 169
f 169 238 170
f 225 233 221
f 225 238 233
f 152 355 300
f 300 355 231
f 301 355 152
f 356 302 304
f 357 356 304
f 172 358 181
f 128 358 172
f 359 314 252
f 254 186 359
f 254 359 252
f 243 359 186
f 360 361 250
f 246 247 362
f 247 121 362
f 362 363 246
f 364 365 366
f 367 309 365
f 253 315 311
f 368 315 369
f 315 368 311
f 313 111 312
f 315 253 312
f 312 253 252
f 293 368 111
f 369 111 368
f 294 368 293
f 255 185 370
f 255 370 182
f 316 311 370
f 316 370 317
f 317 185 184
f 370 185 317
f 371 372 357
f 191 373 144
f 261 374 143
f 330 329 375
f 326 375 376
f 265 264 376
f 329 265 376
f 375 329 376
f 351 349 264
f 236 237 377
f 330 375 377
f 236 377 171
f 377 328 171
f 336 378 331
f 336 266 378
f 265 378 192
f 266 192 378
f 197 268 279
f 336 335 379
f 379 335 273
f 380 379 273
f 338 381 201
f 323 381 338
f 323 321 381
f 154 153 199
f 202 337 201
f 205 322 382
f 383 191 382
f 339 382 191
f 205 382 339
f 339 191 123
f 283 284 206
f 283 285 284
f 211 344 341
f 211 289 343
f 289 384 343
f 343 384 344
f 346 385 195
f 386 385 212
f 195 385 386
f 346 267 285
f 347 290 285
f 290 347 158
f 348 218 164
f 327 387 224
f 295 225 116
f 353 388 230
f 300 230 388
f 300 388 152
f 152 388 128
f 388 353 128
f 238 354 234
f 232 230 299
f 238 296 354
f 225 296 238
f 297 296 298
f 228 298 296
f 233 238 171
f 271 355 301
f 355 271 231
f 231 271 229
f 303 389 239
f 128 390 358
f 391 392 371
f 109 393 164
f 394 164 393
f 219 395 217
f 242 396 243
f 313 314 397
f 111 397 398
f 313 397 111
f 396 399 243
f 397 399 398
f 359 399 314
f 243 399 359
f 400 401 242
f 400 402 403
f 361 360 404
f 405 249 248
f 244 405 248
f 246 405 244
f 364 406 365
f 407 362 121
f 363 362 407
f 174 408 120
f 239 408 174
f 389 408 239
f 310 409 111
f 111 409 410
f 111 411 308
f 410 411 111
f 308 411 412
f 411 410 412
f 366 111 413
f 406 364 413
f 406 413 360
f 366 309 111
f 366 365 309
f 315 414 369
f 415 256 260
f 258 416 259
f 417 259 416
f 417 416 258
f 260 259 418
f 417 258 139
f 259 417 418
f 325 324 277
f 261 144 373
f 376 264 419
f 349 327 419
f 349 419 264
f 326 419 327
f 376 419 326
f 377 375 328
f 326 328 375
f 420 334 272
f 334 420 331
f 270 420 272
f 335 331 420
f 270 335 420
f 329 378 265
f 329 331 378
f 335 270 273
f 380 421 379
f 379 421 336
f 281 421 321
f 321 421 422
f 380 422 421
f 421 281 266
f 336 421 266
f 380 198 422
f 380 273 198
f 422 198 201
f 381 422 201
f 422 381 321
f 338 201 337
f 341 423 342
f 344 423 341
f 423 424 196
f 351 424 425
f 263 424 351
f 268 196 424
f 263 268 424
f 384 426 344
f 426 423 344
f 424 423 426
f 384 425 426
f 424 426 425
f 196 195 288
f 386 288 195
f 196 288 342
f 386 212 288
f 211 342 288
f 423 196 342
f 427 346 345
f 346 427 385
f 212 427 345
f 385 427 212
f 350 428 327
f 387 327 428
f 224 429 222
f 387 429 224
f 384 430 425
f 272 333 271
f 299 234 232
f 232 354 220
f 354 232 234
f 431 303 302
f 303 431 389
f 356 431 302
f 356 357 431
f 305 432 433
f 434 394 435
f 393 435 394
f 436 435 393
f 392 391 437
f 399 438 398
f 438 399 396
f 397 314 439
f 399 439 314
f 397 439 399
f 396 242 401
f 402 400 307
f 402 440 403
f 250 440 248
f 404 441 361
f 111 441 404
f 405 442 249
f 249 442 250
f 360 250 442
f 360 442 406
f 408 407 120
f 120 407 121
f 407 408 363
f 408 389 363
f 404 413 111
f 404 360 413
f 366 413 364
f 409 310 412
f 315 293 414
f 315 111 293
f 414 293 369
f 369 293 111
f 415 260 418
f 256 443 257
f 257 443 320
f 306 444 139
f 373 374 261
f 383 373 191
f 383 382 445
f 382 322 445
f 445 325 143
f 325 445 324
f 322 324 445
f 332 237 333
f 235 333 237
f 377 237 330
f 237 332 330
f 445 374 383
f 374 445 143
f 183 446 286
f 262 263 351
f 430 349 425
f 349 430 350
f 430 428 350
f 384 289 447
f 430 384 447
f 128 135 390
f 391 448 433
f 448 305 433
f 357 448 371
f 391 371 448
f 432 305 217
f 319 449 109
f 449 393 109
f 395 219 450
f 395 450 434
f 164 450 348
f 348 450 219
f 435 451 434
f 451 435 436
f 401 452 396
f 396 452 438
f 438 452 398
f 121 307 242
f 400 242 307
f 453 440 402
f 307 251 453
f 307 453 402
f 251 244 453
f 248 453 244
f 440 453 248
f 440 454 403
f 361 454 250
f 250 454 440
f 246 455 405
f 442 365 406
f 309 412 310
f 409 412 410
f 443 256 415
f 320 456 392
f 443 456 320
f 457 417 139
f 444 457 139
f 138 458 306
f 246 458 412
f 308 458 138
f 308 412 458
f 203 155 151
f 294 222 368
f 459 460 222
f 446 461 286
f 351 425 349
f 447 462 430
f 428 430 462
f 461 446 462
f 372 431 357
f 463 389 431
f 448 464 305
f 305 464 304
f 448 357 464
f 357 304 464
f 449 319 320
f 436 465 437
f 449 320 465
f 392 465 320
f 437 465 392
f 164 466 450
f 450 466 434
f 394 466 164
f 434 466 394
f 451 467 434
f 434 467 395
f 451 436 468
f 451 468 467
f 437 468 436
f 433 468 391
f 437 391 468
f 432 468 433
f 467 468 432
f 401 469 452
f 398 470 471
f 452 470 398
f 471 470 469
f 469 470 452
f 412 367 365
f 246 389 463
f 442 455 365
f 455 442 405
f 372 472 456
f 456 472 392
f 372 371 472
f 392 472 371
f 418 473 415
f 417 473 418
f 457 473 417
f 306 474 444
f 458 474 306
f 151 202 203
f 203 199 153
f 199 203 200
f 368 222 460
f 459 222 429
f 368 475 311
f 370 311 475
f 461 462 447
f 465 393 449
f 436 393 465
f 217 395 467
f 432 217 467
f 476 469 401
f 246 412 455
f 455 412 365
f 412 309 367
f 363 389 246
f 456 443 415
f 473 477 415
f 474 458 463
f 458 246 463
f 431 477 473
f 431 457 444
f 431 473 457
f 477 431 372
f 475 368 460
f 446 183 478
f 287 461 289
f 447 289 461
f 286 461 287
f 271 154 269
f 154 271 301
f 476 400 403
f 400 476 401
f 476 403 479
f 454 479 403
f 454 361 479
f 441 479 361
f 431 444 463
f 474 463 444
f 478 480 446
f 462 446 481
f 462 481 428
f 482 475 460
f 482 370 475
f 478 483 480
f 482 478 370
f 370 478 182
f 182 478 183
f 479 484 476
f 471 484 398
f 469 484 471
f 476 484 469
f 456 477 372
f 415 477 456
f 387 481 429
f 428 481 387
f 478 482 483
f 460 483 482
f 484 441 398
f 398 441 111
f 479 441 484
f 481 446 480
f 483 460 480
f 480 429 481
f 480 459 429
f 460 459 480
f 144 147 145
f 144 143 147
f 146 147 148
f 146 145 147
f 179 176 122
f 175 122 176
f 174 120 122
f 178 241 134
f 134 241 135
f 146 148 137
f 358 390 181
f 181 390 240
f 135 240 390
f 240 135 241
f 373 383 374
f 485 486 487
f 488 487 486
f 489 490 491
f 491 24 489
f 492 493 494
f 495 487 488
f 496 497 490
f 498 490 499
f 498 491 490
f 500 501 502
f 503 504 494
f 505 506 494
f 507 24 491
f 487 508 485
f 492 494 486
f 509 487 495
f 510 511 490
f 497 496 511
f 511 512 487
f 489 513 490
f 514 515 486
f 516 517 518
f 517 516 519
f 519 516 486
f 520 501 500
f 521 502 501
f 522 503 523
f 523 494 506
f 523 503 494
f 524 525 526
f 527 51 26
f 527 26 24
f 527 24 507
f 486 494 504
f 493 492 528
f 529 509 495
f 530 531 490
f 530 529 531
f 532 503 522
f 532 533 503
f 532 522 534
f 535 536 537
f 537 510 490
f 537 490 535
f 538 496 490
f 538 490 511
f 538 511 496
f 539 511 510
f 536 511 539
f 537 539 510
f 539 537 536
f 509 540 487
f 540 511 487
f 511 536 541
f 536 535 541
f 512 511 541
f 542 532 534
f 543 513 489
f 517 544 518
f 517 519 486
f 500 544 517
f 545 499 502
f 502 521 545
f 546 24 26
f 26 51 546
f 534 522 547
f 548 547 522
f 549 548 522
f 550 551 522
f 552 553 522
f 554 555 522
f 556 554 522
f 523 556 522
f 556 523 554
f 526 504 524
f 503 524 504
f 557 558 554
f 557 523 506
f 523 557 554
f 557 506 505
f 505 558 557
f 559 558 505
f 560 505 494
f 560 494 493
f 516 518 528
f 561 529 562
f 561 562 490
f 563 530 490
f 530 563 529
f 563 490 497
f 564 495 488
f 565 524 533
f 525 524 565
f 497 511 566
f 511 540 566
f 566 563 497
f 566 540 509
f 563 566 509
f 535 487 512
f 535 508 487
f 535 490 508
f 567 568 490
f 490 569 570
f 570 567 490
f 529 570 569
f 570 529 567
f 571 490 572
f 571 573 490
f 543 514 513
f 574 546 486
f 574 486 515
f 520 500 517
f 520 517 486
f 527 545 51
f 545 527 507
f 545 507 491
f 498 545 491
f 545 498 499
f 575 576 51
f 577 545 521
f 577 575 545
f 576 575 577
f 577 501 576
f 577 521 501
f 550 522 553
f 551 549 522
f 578 559 505
f 579 580 505
f 579 505 581
f 493 582 560
f 580 579 493
f 493 579 581
f 485 514 486
f 516 528 492
f 516 492 486
f 529 561 531
f 490 531 561
f 509 529 583
f 583 563 509
f 563 583 529
f 533 524 503
f 565 584 525
f 585 564 488
f 586 587 588
f 589 588 590
f 535 512 541
f 591 490 562
f 591 592 490
f 592 591 529
f 593 594 490
f 490 592 593
f 593 529 594
f 593 592 529
f 490 594 569
f 569 594 529
f 568 572 490
f 568 586 572
f 543 574 515
f 520 576 501
f 520 51 576
f 575 51 53
f 545 575 53
f 549 551 595
f 595 548 549
f 551 550 595
f 595 550 553
f 595 547 548
f 534 547 595
f 553 552 595
f 595 542 534
f 500 502 595
f 595 544 500
f 518 544 595
f 596 542 595
f 595 502 499
f 595 528 518
f 555 554 595
f 597 596 595
f 493 528 595
f 595 598 597
f 580 493 595
f 559 578 595
f 595 578 505
f 505 580 595
f 554 558 595
f 558 559 595
f 555 552 522
f 595 552 555
f 560 582 505
f 599 514 485
f 600 587 564
f 588 587 600
f 586 601 587
f 602 586 588
f 602 588 589
f 591 562 529
f 515 514 543
f 546 489 24
f 543 489 546
f 574 543 546
f 582 581 505
f 513 514 599
f 599 485 508
f 508 490 599
f 490 513 599
f 590 603 584
f 584 604 590
f 526 603 590
f 526 525 603
f 603 525 584
f 605 604 584
f 606 564 585
f 606 600 564
f 606 585 600
f 607 585 590
f 607 590 588
f 608 529 495
f 608 495 601
f 608 567 529
f 608 568 567
f 608 601 586
f 586 568 608
f 587 601 564
f 571 609 573
f 586 602 609
f 609 571 572
f 572 586 609
f 493 581 582
f 610 590 604
f 598 611 597
f 611 596 597
f 607 600 585
f 588 600 607
f 601 495 564
f 605 611 612
f 612 611 598
f 605 613 604
f 613 610 604
f 612 613 605
f 610 589 590
f 596 611 614
f 532 542 614
f 614 542 596
f 614 533 532
f 614 565 533
f 614 611 605
f 614 584 565
f 614 605 584
f 610 613 589
f 613 602 589
f 613 609 602
f 488 486 504
f 585 488 504
f 585 504 526
f 486 546 520
f 546 51 520
f 51 545 53
f 499 490 595
f 490 573 595
f 598 595 573
f 590 585 526
f 612 598 573
f 612 573 609
f 613 612 609
f 315 312 615
f 616 617 618
f 306 138 308
f 312 313 615
f 306 449 319
f 510 115 114
f 114 115 306
f 131 110 306
f 306 167 131
f 617 619 499
f 620 621 622
f 619 620 499
f 620 619 621
f 623 624 615
f 624 623 625
f 313 623 615
f 625 623 313
f 624 598 626
f 620 627 499
f 617 499 498
f 498 491 617
f 491 489 617
f 616 628 617
f 628 619 617
f 619 628 629
f 138 630 308
f 397 313 312
f 306 397 312
f 306 258 139
f 306 319 257
f 393 306 164
f 393 449 306
f 115 164 306
f 312 315 306
f 414 306 315
f 315 631 414
f 619 632 621
f 615 633 315
f 624 634 615
f 627 634 499
f 258 567 139
f 319 592 257
f 114 537 510
f 535 537 114
f 635 636 637
f 221 227 306
f 638 116 639
f 617 489 618
f 624 640 641
f 441 641 640
f 624 642 643
f 641 642 624
f 398 441 644
f 441 404 641
f 642 404 643
f 398 306 441
f 404 441 306
f 630 645 308
f 598 646 306
f 624 646 598
f 306 647 138
f 138 647 630
f 646 647 306
f 646 624 647
f 645 648 308
f 308 411 306
f 411 410 306
f 648 411 308
f 410 411 648
f 649 397 398
f 397 649 313
f 397 306 398
f 594 256 257
f 257 256 306
f 620 622 650
f 167 651 131
f 131 652 110
f 650 627 620
f 633 653 315
f 653 631 315
f 653 654 631
f 634 627 650
f 498 499 655
f 634 655 499
f 498 655 491
f 489 491 655
f 537 535 655
f 655 626 510
f 537 655 510
f 626 593 592
f 257 593 594
f 592 593 257
f 164 115 563
f 637 117 635
f 652 117 110
f 652 635 117
f 110 117 306
f 637 636 221
f 656 221 636
f 657 658 638
f 116 658 114
f 658 116 638
f 657 638 659
f 114 226 116
f 306 226 114
f 227 639 226
f 116 226 639
f 227 226 306
f 660 616 618
f 513 660 618
f 655 599 513
f 659 660 513
f 644 640 624
f 441 640 644
f 404 642 641
f 645 630 624
f 647 624 630
f 624 643 661
f 662 624 661
f 366 662 661
f 624 648 645
f 366 413 306
f 310 309 306
f 410 409 306
f 306 409 310
f 648 409 410
f 310 409 648
f 624 625 663
f 663 649 624
f 313 663 625
f 649 663 313
f 644 624 664
f 649 664 624
f 644 664 398
f 664 649 398
f 256 260 306
f 260 259 306
f 651 665 632
f 666 518 667
f 518 666 634
f 667 650 622
f 518 650 667
f 631 668 414
f 669 668 631
f 651 293 665
f 634 633 615
f 655 513 489
f 513 618 489
f 567 568 139
f 626 568 567
f 139 571 306
f 572 571 139
f 571 598 306
f 626 571 572
f 571 626 598
f 569 594 626
f 626 594 593
f 569 256 594
f 567 570 626
f 259 570 567
f 510 670 115
f 626 670 510
f 221 656 616
f 656 628 616
f 628 636 629
f 659 508 657
f 658 508 535
f 658 657 508
f 508 655 535
f 655 508 599
f 599 659 513
f 508 659 599
f 639 660 659
f 659 638 639
f 624 662 648
f 310 662 309
f 648 662 310
f 306 413 404
f 366 661 413
f 366 306 309
f 306 416 258
f 567 258 416
f 567 416 259
f 260 256 569
f 621 665 622
f 632 665 621
f 665 671 622
f 666 669 672
f 634 650 518
f 666 668 669
f 635 652 636
f 673 131 651
f 131 673 652
f 632 673 651
f 629 673 619
f 632 619 673
f 634 672 633
f 653 633 672
f 654 653 672
f 654 672 631
f 631 672 669
f 572 139 568
f 572 568 626
f 570 569 626
f 260 569 259
f 570 259 569
f 562 561 626
f 393 562 449
f 561 562 393
f 561 531 626
f 164 531 393
f 670 674 115
f 674 670 626
f 117 637 168
f 117 168 306
f 227 221 109
f 616 109 221
f 109 616 227
f 656 636 628
f 658 535 114
f 639 227 616
f 660 639 616
f 404 413 643
f 661 643 413
f 366 309 662
f 259 416 306
f 111 665 293
f 665 111 293
f 293 414 665
f 675 414 668
f 671 665 414
f 675 668 667
f 666 667 668
f 622 671 667
f 651 167 292
f 292 167 306
f 651 292 293
f 293 292 306
f 636 652 629
f 652 673 629
f 592 591 626
f 449 591 319
f 591 592 319
f 563 530 164
f 164 530 531
f 626 530 563
f 531 530 626
f 531 561 393
f 674 563 115
f 563 674 626
f 221 168 637
f 168 221 306
f 306 414 293
f 666 672 634
f 591 562 626
f 591 449 562
f 414 675 671
f 671 675 667
f 634 624 655
f 626 655 624
f 676 585 487
f 677 678 679
f 488 487 585
f 680 488 585
f 487 679 681
f 681 679 23
f 23 682 681
f 512 676 487
f 683 679 684
f 679 685 2
f 685 1 2
f 1 686 2
f 686 687 688
f 686 1 687
f 689 488 680
f 689 679 487
f 488 689 487
f 676 539 538
f 512 541 676
f 690 691 692
f 693 685 694
f 685 693 1
f 694 685 679
f 695 684 679
f 695 696 684
f 697 682 23
f 682 697 698
f 699 538 539
f 536 539 676
f 700 682 698
f 701 32 702
f 703 704 705
f 706 693 707
f 706 707 708
f 497 709 710
f 683 691 677
f 683 677 679
f 692 691 683
f 692 683 684
f 693 687 1
f 687 706 688
f 687 693 706
f 711 686 688
f 688 712 711
f 712 713 711
f 2 686 714
f 714 686 711
f 714 711 713
f 694 679 678
f 715 690 692
f 606 585 676
f 606 676 564
f 606 680 585
f 696 695 680
f 680 695 679
f 680 679 689
f 699 511 538
f 716 700 698
f 716 717 700
f 717 716 718
f 718 539 717
f 719 541 512
f 32 23 679
f 701 720 23
f 7 721 702
f 7 32 679
f 702 32 7
f 722 723 724
f 706 712 688
f 725 718 726
f 727 704 728
f 727 728 729
f 727 729 730
f 727 705 704
f 709 731 710
f 731 732 728
f 733 497 734
f 733 734 735
f 735 722 733
f 676 497 733
f 733 722 724
f 734 497 710
f 496 709 497
f 496 676 538
f 496 497 676
f 736 691 690
f 736 677 691
f 730 721 714
f 702 721 730
f 715 737 690
f 676 738 739
f 740 739 741
f 742 564 676
f 743 742 676
f 744 743 564
f 680 606 745
f 539 536 717
f 536 676 541
f 681 719 512
f 681 512 487
f 746 719 681
f 746 681 682
f 700 746 682
f 717 536 541
f 6 721 7
f 6 7 679
f 714 721 6
f 747 748 749
f 750 704 703
f 722 751 723
f 752 738 676
f 676 733 752
f 753 705 712
f 753 712 706
f 753 706 708
f 538 511 718
f 718 511 699
f 718 699 539
f 726 731 709
f 729 728 732
f 729 726 701
f 732 731 726
f 754 731 728
f 754 728 704
f 704 750 754
f 755 733 724
f 755 747 749
f 756 731 754
f 756 710 731
f 756 734 710
f 734 756 735
f 756 754 750
f 696 692 684
f 730 714 713
f 749 740 741
f 741 755 749
f 676 739 743
f 757 758 738
f 758 739 738
f 759 742 743
f 744 759 743
f 564 742 759
f 759 744 564
f 760 745 606
f 680 745 696
f 760 696 745
f 761 746 700
f 761 719 746
f 719 761 541
f 761 717 541
f 701 730 729
f 702 730 701
f 23 32 701
f 2 6 679
f 714 6 2
f 748 740 749
f 762 740 763
f 740 748 763
f 764 750 703
f 765 723 751
f 765 751 764
f 766 767 768
f 723 765 769
f 769 765 767
f 752 757 738
f 752 733 757
f 720 698 697
f 720 697 23
f 727 770 705
f 538 718 725
f 725 496 538
f 496 725 709
f 725 726 709
f 729 732 726
f 755 724 747
f 771 741 739
f 739 758 771
f 772 756 750
f 750 764 772
f 772 764 751
f 772 751 722
f 772 722 735
f 772 735 756
f 696 760 715
f 740 743 739
f 737 773 740
f 761 700 717
f 763 774 762
f 774 737 762
f 690 737 774
f 767 765 753
f 768 767 753
f 753 708 768
f 775 765 764
f 703 705 775
f 775 764 703
f 705 753 775
f 775 753 765
f 707 776 708
f 776 768 708
f 768 776 766
f 701 716 698
f 716 726 718
f 726 716 701
f 705 770 712
f 777 770 727
f 777 727 730
f 777 730 713
f 777 713 712
f 770 777 712
f 778 755 741
f 771 778 741
f 779 733 755
f 779 771 733
f 778 779 755
f 779 778 771
f 733 771 509
f 757 771 758
f 780 715 760
f 780 737 715
f 780 606 564
f 780 760 606
f 773 564 743
f 740 773 743
f 737 740 762
f 781 707 693
f 736 781 694
f 782 769 767
f 723 769 782
f 724 723 782
f 724 782 747
f 782 748 747
f 783 766 776
f 701 698 720
f 583 509 771
f 583 771 757
f 733 509 583
f 583 757 733
f 780 773 737
f 773 780 564
f 692 696 715
f 694 781 693
f 736 694 678
f 766 782 767
f 707 781 783
f 707 783 776
f 781 736 690
f 774 781 690
f 783 774 763
f 783 781 774
f 784 763 748
f 736 678 677
f 784 783 763
f 784 782 766
f 748 782 784
f 784 766 783
f 526 785 494
f 786 787 788
f 494 504 526
f 504 789 526
f 788 494 790
f 788 790 81
f 791 81 790
f 785 560 494
f 788 792 793
f 794 788 795
f 94 794 795
f 796 94 795
f 797 796 798
f 94 796 797
f 504 799 789
f 788 799 494
f 799 504 494
f 579 785 578
f 582 560 785
f 800 801 802
f 794 803 804
f 803 794 94
f 794 804 788
f 793 805 788
f 806 805 793
f 807 81 791
f 807 791 808
f 578 809 579
f 579 581 785
f 791 810 808
f 811 812 813
f 803 814 815
f 816 558 817
f 800 792 787
f 787 792 788
f 800 802 792
f 792 802 793
f 797 803 94
f 814 797 798
f 803 797 814
f 796 818 798
f 819 798 818
f 820 819 818
f 796 795 821
f 796 821 818
f 818 821 820
f 788 804 786
f 801 822 802
f 526 525 785
f 785 525 524
f 789 525 526
f 805 806 789
f 805 789 788
f 788 789 799
f 505 809 578
f 810 823 808
f 824 823 810
f 823 824 825
f 579 825 824
f 582 826 560
f 81 827 788
f 828 829 81
f 830 831 832
f 827 831 788
f 827 832 831
f 833 834 835
f 819 814 798
f 825 836 837
f 811 838 839
f 839 838 840
f 840 838 841
f 813 838 811
f 842 816 817
f 843 842 839
f 558 844 845
f 845 844 846
f 834 846 844
f 558 785 844
f 834 844 835
f 817 558 845
f 816 559 558
f 785 559 578
f 558 559 785
f 800 847 801
f 787 847 800
f 830 841 821
f 830 832 841
f 848 822 801
f 849 785 850
f 850 851 852
f 524 853 785
f 853 854 785
f 855 856 524
f 854 856 855
f 525 789 857
f 581 579 824
f 785 581 582
f 826 790 560
f 560 790 494
f 826 858 790
f 790 858 791
f 858 810 791
f 581 824 582
f 829 859 81
f 830 860 831
f 831 860 788
f 830 821 860
f 861 862 863
f 811 864 812
f 865 834 833
f 849 866 785
f 844 785 866
f 829 837 840
f 813 867 819
f 819 867 814
f 505 578 825
f 505 825 809
f 809 825 579
f 842 837 816
f 839 840 843
f 842 843 837
f 842 868 839
f 839 868 811
f 864 811 868
f 844 869 835
f 862 869 863
f 870 817 845
f 842 870 868
f 817 870 842
f 870 845 846
f 868 870 864
f 802 806 793
f 821 841 820
f 851 863 852
f 869 852 863
f 854 850 785
f 871 872 849
f 850 871 849
f 853 873 854
f 873 856 854
f 853 524 873
f 856 873 524
f 857 874 525
f 857 789 806
f 806 874 857
f 858 875 810
f 826 875 858
f 875 826 582
f 824 875 582
f 827 859 832
f 841 859 840
f 841 832 859
f 827 81 859
f 788 860 795
f 821 795 860
f 851 861 863
f 851 876 877
f 861 851 877
f 864 878 812
f 833 879 865
f 865 879 878
f 880 881 882
f 879 833 883
f 879 883 880
f 872 866 849
f 844 866 872
f 828 837 829
f 808 828 807
f 807 828 81
f 884 838 813
f 825 578 836
f 559 836 578
f 836 559 816
f 837 836 816
f 843 840 837
f 869 862 835
f 852 885 850
f 871 850 885
f 870 886 864
f 878 864 886
f 878 886 865
f 865 886 834
f 834 886 846
f 846 886 870
f 874 806 822
f 851 854 855
f 854 851 850
f 887 848 851
f 810 875 824
f 859 829 840
f 888 877 876
f 848 888 876
f 848 801 888
f 879 880 867
f 880 882 867
f 814 867 882
f 879 889 878
f 813 812 889
f 878 889 812
f 867 813 889
f 867 889 879
f 890 815 814
f 882 890 814
f 890 882 881
f 823 837 808
f 837 823 825
f 884 813 819
f 891 838 884
f 838 891 841
f 841 891 820
f 820 891 819
f 891 884 819
f 869 892 852
f 892 885 852
f 844 893 869
f 885 893 844
f 893 892 869
f 892 893 885
f 885 844 523
f 885 872 871
f 822 894 874
f 848 894 822
f 525 894 524
f 874 894 525
f 887 855 524
f 851 855 887
f 851 848 876
f 815 895 803
f 895 847 804
f 883 896 880
f 883 833 896
f 833 835 896
f 862 896 835
f 861 896 862
f 881 897 890
f 808 837 828
f 523 556 885
f 885 556 872
f 523 844 556
f 872 556 844
f 887 894 848
f 894 887 524
f 806 802 822
f 895 804 803
f 804 847 786
f 896 881 880
f 895 815 897
f 897 815 890
f 847 895 801
f 895 888 801
f 888 897 877
f 895 897 888
f 877 898 861
f 786 847 787
f 897 898 877
f 896 898 881
f 896 861 898
f 881 898 897

