# https://github.com/mikedh/trimesh
v -0.02075907 -0.01647152 0.00000000
v -0.01835271 -0.01585057 -0.01100000
v -0.01873833 -0.01873833 0.00000000
v -0.03091468 -0.00334240 0.00000000
v 0.00265586 -0.02138268 0.01250000
v 0.03091468 -0.00334240 0.00700000
v 0.03111719 -0.00307730 0.00700000
v -0.01650129 -0.01852302 0.00830000
v -0.00307730 -0.03111719 0.00700000
v -0.00215522 -0.02184355 0.01250000
v 0.00355932 -0.01924901 0.01250000
v 0.03142752 -0.00213559 0.00700000
v 0.03150000 -0.00000000 0.00700000
v -0.02161270 -0.01099789 -0.01100000
v -0.03127281 -0.00278222 0.00000000
v -0.02278077 -0.00831258 -0.01100000
v -0.01630832 -0.01794717 -0.01100000
v -0.01647152 -0.02075907 0.00000000
v -0.01402613 -0.01978207 -0.01100000
v 0.01794717 -0.01630832 -0.01100000
v 0.02129458 -0.01577311 -0.00000000
v 0.01949988 -0.01794448 -0.00000000
v 0.02075907 0.01647152 -0.00000000
v 0.01835271 0.01585057 -0.01100000
v 0.01873833 0.01873833 -0.00000000
v -0.00165779 -0.02215950 0.01250000
v -0.00214524 -0.02184989 0.01250000
v 0.00301181 -0.02091304 0.01250000
v 0.03127281 -0.00278222 0.00700000
v 0.00328561 -0.02039122 0.01250000
v 0.00355176 -0.01865977 0.01250000
v 0.03149516 0.00014261 0.00700000
v -0.03091468 -0.00334240 0.00700000
v -0.02075907 -0.01647152 0.00700000
v -0.01656292 -0.01846139 0.00830000
v -0.03137723 -0.00246538 0.00000000
v -0.03111719 0.00307730 0.00000000
v -0.02132850 0.01153939 -0.01100000
v -0.03127281 0.00278222 0.00000000
v -0.00334240 -0.03091468 0.00000000
v -0.03111719 -0.00307730 0.00000000
v -0.02012947 -0.01352282 -0.01100000
v 0.02161270 0.01099789 -0.01100000
v 0.03111719 0.00307730 -0.00000000
v 0.03127281 0.00278222 -0.00000000
v 0.03150000 -0.00000000 -0.00000000
v 0.03142752 0.00213559 0.00000000
v -0.03150000 0.00000000 0.00000000
v -0.02424807 0.00030578 -0.01100000
v -0.03142752 -0.00213559 0.00000000
v -0.03142752 -0.00213559 0.00700000
v -0.03150000 0.00000000 0.00700000
v 0.00030578 0.02424807 -0.01100000
v 0.00000000 0.03150000 -0.00000000
v 0.00213559 0.03142752 0.00000000
v 0.00213559 0.03142752 0.00700000
v 0.02012947 0.01352282 -0.01100000
v -0.00259386 -0.02145003 0.01250000
v -0.00355176 -0.01934023 0.01250000
v -0.00278222 -0.03127281 0.00700000
v -0.00246538 -0.03137723 0.00700000
v -0.00213559 -0.03142752 0.00700000
v -0.00054208 -0.02252660 0.01250000
v 0.00004577 -0.02256772 0.01250000
v -0.00000000 -0.03150000 0.00700000
v -0.00111515 -0.02238927 0.01250000
v 0.00355631 -0.01901479 0.01250000
v 0.02132850 -0.01153939 -0.01100000
v 0.03127281 -0.00278222 -0.00000000
v 0.03111719 -0.00307730 -0.00000000
v 0.03142752 0.00213559 0.00700000
v 0.03091468 0.00334240 -0.00000000
v 0.01873833 0.01873833 0.00700000
v 0.01981125 0.01753476 0.00700000
v 0.02075907 0.01647152 0.00700000
v 0.00215522 -0.01615645 0.01250000
v 0.01647152 0.02075907 0.00700000
v 0.00000000 0.03150000 0.00700000
v -0.00004577 -0.01543228 0.01250000
v 0.01402613 0.01978207 -0.01100000
v 0.01153939 0.02132850 -0.01100000
v 0.00307730 0.03111719 -0.00000000
v -0.01873833 -0.01873833 0.00700000
v -0.01647152 -0.02075907 0.00700000
v -0.02361665 -0.00550605 -0.01100000
v -0.01978207 0.01402613 -0.01100000
v -0.03091468 0.00334240 0.00000000
v -0.02075907 0.01647152 0.00000000
v -0.01794717 0.01630832 -0.01100000
v -0.02256391 0.00888439 -0.01100000
v -0.00609984 -0.02347029 -0.01100000
v -0.00246538 -0.03137723 0.00000000
v -0.00888439 -0.02256391 -0.01100000
v 0.00278222 -0.03127281 0.00700000
v 0.00307730 -0.03111719 0.00700000
v 0.00173830 -0.02211593 0.01250000
v 0.00213559 -0.03142752 0.00000000
v -0.00030578 -0.02424807 -0.01100000
v 0.00261923 -0.02410813 -0.01100000
v -0.00334240 -0.03091468 0.00700000
v -0.03111719 -0.00307730 0.00700000
v -0.00296174 -0.02098968 0.01250000
v 0.01483996 -0.02338781 0.00700000
v 0.01949988 -0.01794448 0.00700000
v 0.02278077 0.00831258 -0.01100000
v 0.03137723 0.00246538 -0.00000000
v 0.02361665 0.00550605 -0.01100000
v 0.02424807 -0.00030578 -0.01100000
v 0.03142752 -0.00213559 0.00000000
v 0.01978207 -0.01402613 -0.01100000
v 0.03091468 -0.00334240 -0.00000000
v 0.00322633 0.02403442 -0.01100000
v -0.00550605 0.02361665 -0.01100000
v -0.00246538 0.03137723 -0.00000000
v -0.00261923 0.02410813 -0.01100000
v -0.00831258 0.02278077 -0.01100000
v -0.00278222 0.03127281 -0.00000000
v -0.01873833 0.01873833 0.00000000
v -0.01585057 0.01835271 -0.01100000
v -0.01647152 0.02075907 0.00000000
v 0.00888439 0.02256391 -0.01100000
v 0.00278222 0.03127281 -0.00000000
v -0.00272560 -0.02128517 0.01250000
v -0.00245022 -0.02157889 0.01250000
v -0.00018556 -0.02255154 0.01250000
v -0.00101931 -0.02241224 0.01250000
v -0.03142752 0.00213559 0.00000000
v -0.02403442 0.00322633 -0.01100000
v -0.00355932 -0.01875099 0.01250000
v -0.03142752 0.00213559 0.00700000
v -0.00120173 -0.01564045 0.01250000
v -0.00063237 -0.01548847 0.01250000
v -0.00246538 0.03137723 0.00700000
v -0.01873833 0.01873833 0.00700000
v -0.02075907 0.01647152 0.00700000
v -0.00265586 -0.01661732 0.01250000
v -0.00222746 -0.01621268 0.01250000
v -0.00307730 0.03111719 0.00700000
v -0.00173830 -0.01588407 0.01250000
v 0.02256391 -0.00888439 -0.01100000
v 0.03137723 -0.00246538 0.00700000
v 0.00346979 -0.01983145 0.01250000
v 0.03137723 0.00246538 0.00700000
v 0.00346656 -0.01818667 0.01250000
v 0.00344731 -0.01807981 0.01250000
v 0.00334240 0.03091468 0.00700000
v 0.00307730 0.03111719 0.00700000
v 0.00054208 -0.01547340 0.01250000
v 0.00334240 0.03091468 -0.00000000
v 0.01630832 0.01794717 -0.01100000
v -0.02410813 -0.00261923 -0.01100000
v -0.00278222 -0.03127281 0.00000000
v -0.01153939 -0.02132850 -0.01100000
v -0.00322633 -0.02403442 -0.01100000
v -0.00000000 -0.03150000 0.00000000
v 0.01099789 -0.02161270 -0.01100000
v 0.01352282 -0.02012947 -0.01100000
v 0.00307730 -0.03111719 -0.00000000
v 0.01478206 -0.02344334 -0.00000000
v 0.01585057 -0.01835271 -0.01100000
v 0.01483996 -0.02338781 -0.00000000
v 0.01471603 -0.02348890 0.00000000
v 0.00149747 -0.02222528 0.01250000
v 0.00120173 -0.02235955 0.01250000
v 0.00246538 -0.03137723 0.00700000
v 0.00278222 -0.03127281 -0.00000000
v 0.00831258 -0.02278077 -0.01100000
v 0.02129458 -0.01577311 0.00700000
v 0.02410813 0.00261923 -0.01100000
v 0.02403442 -0.00322633 -0.01100000
v -0.01099789 0.02161270 -0.01100000
v -0.00213559 0.03142752 0.00000000
v -0.00307730 0.03111719 -0.00000000
v -0.01352282 0.02012947 -0.01100000
v -0.03137723 -0.00246538 0.00700000
v -0.00344731 -0.01992019 0.01250000
v -0.03127281 -0.00278222 0.00700000
v -0.00324884 -0.02047505 0.01250000
v -0.00060840 -0.02251071 0.01250000
v -0.03127281 0.00278222 0.00700000
v -0.00301181 -0.01708696 0.01250000
v -0.03111719 0.00307730 0.00700000
v -0.00346979 -0.01816855 0.01250000
v -0.03137723 0.00246538 0.00700000
v -0.00278222 0.03127281 0.00700000
v -0.03091468 0.00334240 0.00700000
v -0.01753476 0.01981125 0.00700000
v -0.01647152 0.02075907 0.00700000
v -0.00334240 0.03091468 0.00700000
v 0.00352722 -0.01945778 0.01250000
v 0.00259386 -0.01654997 0.01250000
v 0.00296174 -0.01701032 0.01250000
v 0.00354060 -0.01859784 0.01250000
v 0.00165779 -0.01584050 0.01250000
v 0.00278222 0.03127281 0.00700000
v 0.00111515 -0.01561073 0.01250000
v 0.00246538 0.03137723 0.00700000
v 0.01647152 0.02075907 -0.00000000
v -0.00307730 -0.03111719 0.00000000
v -0.00213559 -0.03142752 0.00000000
v 0.00224993 -0.02176610 0.01250000
v 0.00222746 -0.02178732 0.01250000
v 0.01478206 -0.02344334 0.00700000
v 0.00257670 -0.02145744 0.01250000
v 0.00109169 -0.02238892 0.01250000
v 0.00063237 -0.02251153 0.01250000
v 0.00213559 -0.03142752 0.00700000
v 0.00550605 -0.02361665 -0.01100000
v 0.00246538 -0.03137723 -0.00000000
v 0.03137723 -0.00246538 -0.00000000
v 0.02347029 -0.00609984 -0.01100000
v -0.00014261 0.03149516 0.00700000
v -0.00334240 0.03091468 -0.00000000
v -0.00328561 -0.01760878 0.01250000
v -0.02347029 0.00609984 -0.01100000
v -0.03137723 0.00246538 0.00000000
v 0.03111719 0.00307730 0.00700000
v 0.00318302 -0.01740696 0.01250000
v 0.00324884 -0.01752495 0.01250000
v 0.03127281 0.00278222 0.00700000
v 0.00334347 -0.01778950 0.01250000
v 0.03091468 0.00334240 0.00700000
v 0.00246538 0.03137723 -0.00000000
v 0.00609984 0.02347029 -0.01100000
v 0.01471603 -0.02348890 0.00700000
v 0.00188567 -0.02201694 0.01250000
v -0.00213559 0.03142752 0.00700000
f 1 2 3
f 2 1 4
f 5 6 7
f 8 9 10
f 11 12 13
f 14 15 16
f 2 17 3
f 18 3 17
f 18 17 19
f 20 21 22
f 23 24 25
f 9 26 27
f 9 27 10
f 7 28 5
f 28 29 30
f 28 7 29
f 31 13 32
f 33 34 35
f 15 36 16
f 37 38 39
f 19 40 18
f 2 41 42
f 41 2 4
f 42 41 14
f 41 15 14
f 43 44 45
f 32 13 46
f 32 46 47
f 48 49 50
f 51 52 48
f 51 48 50
f 53 54 55
f 56 55 54
f 57 24 44
f 43 57 44
f 8 58 35
f 51 59 52
f 9 60 26
f 61 62 63
f 64 62 65
f 60 66 26
f 61 66 60
f 67 11 13
f 31 67 13
f 68 69 70
f 32 71 31
f 47 71 32
f 24 72 44
f 23 72 24
f 73 74 25
f 25 74 23
f 23 74 75
f 76 73 77
f 56 78 79
f 54 78 56
f 80 81 82
f 8 83 84
f 8 35 83
f 34 83 35
f 36 85 16
f 86 38 37
f 87 86 37
f 88 86 87
f 89 86 88
f 38 90 39
f 91 92 93
f 94 95 96
f 97 98 99
f 84 100 8
f 100 9 8
f 33 35 101
f 102 101 35
f 103 104 5
f 45 105 43
f 106 107 105
f 106 105 45
f 46 108 47
f 109 108 46
f 110 68 70
f 111 110 70
f 21 110 111
f 21 20 110
f 55 112 53
f 113 114 115
f 116 114 113
f 117 114 116
f 89 88 118
f 89 118 119
f 119 118 120
f 121 122 81
f 81 122 82
f 123 102 35
f 58 123 35
f 10 124 8
f 124 58 8
f 62 125 63
f 62 64 125
f 126 66 61
f 49 127 128
f 48 127 49
f 52 129 130
f 59 129 52
f 131 132 133
f 134 135 136
f 136 137 134
f 138 137 139
f 69 68 140
f 30 141 142
f 29 141 30
f 141 12 11
f 71 143 31
f 144 143 145
f 76 146 147
f 77 146 76
f 148 56 79
f 149 80 82
f 24 150 25
f 49 151 50
f 50 151 36
f 151 85 36
f 92 152 93
f 93 152 153
f 92 91 154
f 97 155 98
f 156 157 158
f 159 157 160
f 22 161 20
f 20 161 160
f 160 161 159
f 157 162 158
f 159 162 157
f 94 96 163
f 94 163 164
f 165 94 164
f 156 166 167
f 156 158 166
f 5 168 6
f 104 168 5
f 108 169 47
f 47 169 106
f 106 169 107
f 170 108 109
f 116 171 117
f 114 172 115
f 115 172 53
f 53 172 54
f 119 173 174
f 173 171 174
f 171 173 117
f 59 175 176
f 59 51 175
f 176 175 177
f 176 177 178
f 101 178 177
f 178 101 102
f 61 63 179
f 179 126 61
f 180 181 182
f 136 182 181
f 183 184 129
f 129 184 130
f 131 133 185
f 131 185 139
f 138 139 185
f 136 186 182
f 135 186 136
f 137 187 134
f 187 137 188
f 118 134 187
f 188 120 187
f 118 187 120
f 137 189 188
f 138 189 137
f 141 11 190
f 141 190 142
f 74 191 75
f 75 191 192
f 73 191 74
f 76 191 73
f 193 143 144
f 143 193 31
f 194 195 196
f 195 194 147
f 76 147 194
f 196 197 148
f 195 197 196
f 148 197 56
f 149 198 80
f 80 198 150
f 150 198 25
f 152 199 153
f 153 199 19
f 199 40 19
f 98 200 154
f 154 200 92
f 155 200 98
f 62 200 65
f 155 65 200
f 201 202 203
f 201 203 204
f 204 203 5
f 203 103 5
f 165 205 206
f 165 164 205
f 64 207 206
f 207 165 206
f 207 64 65
f 155 207 65
f 97 207 155
f 208 209 99
f 99 209 97
f 167 209 208
f 166 209 167
f 170 109 210
f 170 210 211
f 211 210 140
f 140 210 69
f 78 54 212
f 172 212 54
f 78 212 79
f 119 120 213
f 173 119 213
f 214 181 180
f 184 183 214
f 184 214 180
f 215 216 90
f 90 216 39
f 128 216 215
f 127 216 128
f 217 218 219
f 192 218 217
f 217 219 220
f 221 220 219
f 221 145 220
f 143 220 145
f 192 222 75
f 217 222 192
f 112 223 224
f 112 55 223
f 224 223 121
f 223 122 121
f 95 225 96
f 226 96 225
f 226 225 202
f 203 202 225
f 172 227 212
f 212 227 79
f 132 79 227
f 132 227 133
f 1 34 4
f 34 33 4
f 7 111 70
f 6 111 7
f 109 46 12
f 12 46 13
f 70 69 7
f 29 7 69
f 18 84 83
f 18 83 3
f 3 83 1
f 83 34 1
f 18 100 84
f 40 100 18
f 33 101 4
f 4 101 41
f 177 15 101
f 41 101 15
f 180 182 37
f 180 37 39
f 130 127 52
f 48 52 127
f 118 135 134
f 118 88 135
f 106 143 47
f 47 143 71
f 122 195 82
f 82 195 147
f 147 149 82
f 146 149 147
f 60 152 61
f 92 61 152
f 104 161 22
f 104 103 161
f 94 166 95
f 95 166 158
f 168 111 6
f 111 168 21
f 21 168 22
f 22 168 104
f 128 171 49
f 121 81 171
f 112 171 53
f 154 91 171
f 153 19 171
f 42 14 171
f 151 171 85
f 17 171 19
f 14 16 171
f 105 171 43
f 174 171 119
f 115 53 171
f 86 171 38
f 2 171 17
f 153 171 93
f 42 171 2
f 90 38 171
f 80 171 81
f 110 171 68
f 170 171 108
f 99 98 171
f 57 43 171
f 150 171 80
f 91 93 171
f 156 167 171
f 169 108 171
f 128 215 171
f 115 171 113
f 57 171 24
f 121 171 224
f 140 68 171
f 85 171 16
f 86 89 171
f 90 171 215
f 167 208 171
f 99 171 208
f 105 107 171
f 160 157 171
f 110 20 171
f 112 224 171
f 116 113 171
f 119 171 89
f 140 171 211
f 150 24 171
f 151 49 171
f 154 171 98
f 156 171 157
f 160 171 20
f 169 171 107
f 170 211 171
f 36 175 50
f 50 175 51
f 175 36 15
f 177 175 15
f 114 117 185
f 114 185 133
f 185 173 138
f 173 185 117
f 182 186 37
f 37 186 87
f 135 88 186
f 87 186 88
f 149 146 198
f 146 77 198
f 25 198 73
f 77 73 198
f 60 9 199
f 152 60 199
f 40 199 100
f 100 199 9
f 92 200 61
f 62 61 200
f 203 161 103
f 161 203 159
f 207 209 165
f 97 209 207
f 166 94 209
f 165 209 94
f 12 210 109
f 141 210 12
f 69 210 29
f 141 29 210
f 189 213 188
f 188 213 120
f 173 213 138
f 189 138 213
f 39 216 180
f 184 180 216
f 127 130 216
f 184 216 130
f 201 218 202
f 28 30 218
f 28 218 5
f 176 218 59
f 67 31 218
f 27 218 10
f 145 218 144
f 124 218 58
f 148 218 196
f 202 218 226
f 139 218 131
f 191 218 192
f 64 206 218
f 218 194 196
f 221 218 145
f 204 218 201
f 27 26 218
f 125 64 218
f 218 137 136
f 218 132 131
f 142 218 30
f 193 218 31
f 226 218 96
f 218 123 58
f 126 218 66
f 66 218 26
f 129 59 218
f 179 218 126
f 67 218 11
f 181 218 136
f 190 218 142
f 204 5 218
f 123 218 102
f 124 10 218
f 163 218 164
f 125 218 63
f 178 218 176
f 129 218 183
f 132 218 79
f 137 218 139
f 219 218 221
f 214 218 181
f 218 148 79
f 163 96 218
f 218 178 102
f 179 63 218
f 205 164 218
f 190 11 218
f 191 76 218
f 218 193 144
f 194 218 76
f 205 218 206
f 214 183 218
f 220 143 106
f 106 45 220
f 217 220 44
f 45 44 220
f 72 23 222
f 75 222 23
f 72 222 44
f 44 222 217
f 197 223 56
f 55 56 223
f 223 195 122
f 223 197 195
f 158 225 95
f 162 225 158
f 203 225 159
f 162 159 225
f 133 227 114
f 227 172 114

